<svg xmlns="http://www.w3.org/2000/svg" xmlns:xlink="http://www.w3.org/1999/xlink" width="500" zoomAndPan="magnify" viewBox="0 0 375 374.999991" height="500" preserveAspectRatio="xMidYMid meet" version="1.0"><defs><g/><clipPath id="1c7be3faa0"><path d="M 28.835938 86.859375 L 37.5 86.859375 L 37.5 284.648438 L 28.835938 284.648438 Z M 28.835938 86.859375 " clip-rule="nonzero"/></clipPath><clipPath id="6ec9c32221"><path d="M 33.167969 86.859375 C 35.558594 86.859375 37.5 88.796875 37.5 91.191406 L 37.5 280.304688 C 37.5 282.699219 35.558594 284.636719 33.167969 284.636719 C 30.773438 284.636719 28.835938 282.699219 28.835938 280.304688 L 28.835938 91.191406 C 28.835938 88.796875 30.773438 86.859375 33.167969 86.859375 Z M 33.167969 86.859375 " clip-rule="nonzero"/></clipPath><clipPath id="2fb8760d8e"><path d="M 0.835938 0.859375 L 9.5 0.859375 L 9.5 198.640625 L 0.835938 198.640625 Z M 0.835938 0.859375 " clip-rule="nonzero"/></clipPath><clipPath id="0e845317ef"><path d="M 5.167969 0.859375 C 7.558594 0.859375 9.5 2.796875 9.5 5.191406 L 9.5 194.304688 C 9.5 196.699219 7.558594 198.636719 5.167969 198.636719 C 2.773438 198.636719 0.835938 196.699219 0.835938 194.304688 L 0.835938 5.191406 C 0.835938 2.796875 2.773438 0.859375 5.167969 0.859375 Z M 5.167969 0.859375 " clip-rule="nonzero"/></clipPath><clipPath id="15c4d7d176"><rect x="0" width="10" y="0" height="199"/></clipPath><clipPath id="b893dd4014"><path d="M 17.527344 99.839844 L 49 99.839844 L 49 102.839844 L 17.527344 102.839844 Z M 17.527344 99.839844 " clip-rule="nonzero"/></clipPath><clipPath id="ae2b503fe8"><path d="M 17.527344 118.328125 L 49 118.328125 L 49 121.328125 L 17.527344 121.328125 Z M 17.527344 118.328125 " clip-rule="nonzero"/></clipPath><clipPath id="29ec7b9f50"><path d="M 17.527344 136.820312 L 49 136.820312 L 49 139.820312 L 17.527344 139.820312 Z M 17.527344 136.820312 " clip-rule="nonzero"/></clipPath><clipPath id="99d2ef5656"><path d="M 17.527344 155.308594 L 49 155.308594 L 49 158.308594 L 17.527344 158.308594 Z M 17.527344 155.308594 " clip-rule="nonzero"/></clipPath><clipPath id="222e01c4c9"><path d="M 17.527344 173.796875 L 49 173.796875 L 49 176.796875 L 17.527344 176.796875 Z M 17.527344 173.796875 " clip-rule="nonzero"/></clipPath><clipPath id="8eea8c0302"><path d="M 17.527344 192.289062 L 49 192.289062 L 49 195.289062 L 17.527344 195.289062 Z M 17.527344 192.289062 " clip-rule="nonzero"/></clipPath><clipPath id="0e685b1d2e"><path d="M 17.527344 210.777344 L 49 210.777344 L 49 213.777344 L 17.527344 213.777344 Z M 17.527344 210.777344 " clip-rule="nonzero"/></clipPath><clipPath id="de4d9d3ae3"><path d="M 17.527344 229.269531 L 49 229.269531 L 49 232.269531 L 17.527344 232.269531 Z M 17.527344 229.269531 " clip-rule="nonzero"/></clipPath><clipPath id="2987beae37"><path d="M 17.527344 247.757812 L 49 247.757812 L 49 250.757812 L 17.527344 250.757812 Z M 17.527344 247.757812 " clip-rule="nonzero"/></clipPath><clipPath id="b17db2787a"><path d="M 17.527344 266.25 L 49 266.25 L 49 269.25 L 17.527344 269.25 Z M 17.527344 266.25 " clip-rule="nonzero"/></clipPath><clipPath id="1047cf5612"><path d="M 127.683594 86.859375 L 136.351562 86.859375 L 136.351562 284.648438 L 127.683594 284.648438 Z M 127.683594 86.859375 " clip-rule="nonzero"/></clipPath><clipPath id="0222bd18c8"><path d="M 132.019531 86.859375 C 134.410156 86.859375 136.351562 88.796875 136.351562 91.191406 L 136.351562 280.304688 C 136.351562 282.699219 134.410156 284.636719 132.019531 284.636719 C 129.625 284.636719 127.683594 282.699219 127.683594 280.304688 L 127.683594 91.191406 C 127.683594 88.796875 129.625 86.859375 132.019531 86.859375 Z M 132.019531 86.859375 " clip-rule="nonzero"/></clipPath><clipPath id="962b3ccd6b"><path d="M 0.683594 0.859375 L 9.351562 0.859375 L 9.351562 198.640625 L 0.683594 198.640625 Z M 0.683594 0.859375 " clip-rule="nonzero"/></clipPath><clipPath id="bbb09dffd5"><path d="M 5.019531 0.859375 C 7.410156 0.859375 9.351562 2.796875 9.351562 5.191406 L 9.351562 194.304688 C 9.351562 196.699219 7.410156 198.636719 5.019531 198.636719 C 2.625 198.636719 0.683594 196.699219 0.683594 194.304688 L 0.683594 5.191406 C 0.683594 2.796875 2.625 0.859375 5.019531 0.859375 Z M 5.019531 0.859375 " clip-rule="nonzero"/></clipPath><clipPath id="0517000bf5"><rect x="0" width="10" y="0" height="199"/></clipPath><clipPath id="da1362f785"><path d="M 116.375 99.839844 L 147.875 99.839844 L 147.875 102.839844 L 116.375 102.839844 Z M 116.375 99.839844 " clip-rule="nonzero"/></clipPath><clipPath id="3cf84b9343"><path d="M 116.375 118.328125 L 147.875 118.328125 L 147.875 121.328125 L 116.375 121.328125 Z M 116.375 118.328125 " clip-rule="nonzero"/></clipPath><clipPath id="e20d1e7b3e"><path d="M 116.375 136.820312 L 147.875 136.820312 L 147.875 139.820312 L 116.375 139.820312 Z M 116.375 136.820312 " clip-rule="nonzero"/></clipPath><clipPath id="bce04a9fb8"><path d="M 116.375 155.308594 L 147.875 155.308594 L 147.875 158.308594 L 116.375 158.308594 Z M 116.375 155.308594 " clip-rule="nonzero"/></clipPath><clipPath id="668e188b7d"><path d="M 116.375 173.796875 L 147.875 173.796875 L 147.875 176.796875 L 116.375 176.796875 Z M 116.375 173.796875 " clip-rule="nonzero"/></clipPath><clipPath id="271c5970ef"><path d="M 116.375 192.289062 L 147.875 192.289062 L 147.875 195.289062 L 116.375 195.289062 Z M 116.375 192.289062 " clip-rule="nonzero"/></clipPath><clipPath id="9ed3007483"><path d="M 116.375 210.777344 L 147.875 210.777344 L 147.875 213.777344 L 116.375 213.777344 Z M 116.375 210.777344 " clip-rule="nonzero"/></clipPath><clipPath id="e7492b9313"><path d="M 116.375 229.269531 L 147.875 229.269531 L 147.875 232.269531 L 116.375 232.269531 Z M 116.375 229.269531 " clip-rule="nonzero"/></clipPath><clipPath id="68cae03596"><path d="M 116.375 247.757812 L 147.875 247.757812 L 147.875 250.757812 L 116.375 250.757812 Z M 116.375 247.757812 " clip-rule="nonzero"/></clipPath><clipPath id="e8452e186e"><path d="M 116.375 266.25 L 147.875 266.25 L 147.875 269.25 L 116.375 269.25 Z M 116.375 266.25 " clip-rule="nonzero"/></clipPath><clipPath id="b651e1ec6f"><path d="M 226.535156 86.859375 L 235.199219 86.859375 L 235.199219 284.648438 L 226.535156 284.648438 Z M 226.535156 86.859375 " clip-rule="nonzero"/></clipPath><clipPath id="9496f578ab"><path d="M 230.867188 86.859375 C 233.261719 86.859375 235.199219 88.796875 235.199219 91.191406 L 235.199219 280.304688 C 235.199219 282.699219 233.261719 284.636719 230.867188 284.636719 C 228.476562 284.636719 226.535156 282.699219 226.535156 280.304688 L 226.535156 91.191406 C 226.535156 88.796875 228.476562 86.859375 230.867188 86.859375 Z M 230.867188 86.859375 " clip-rule="nonzero"/></clipPath><clipPath id="c2681512e3"><path d="M 0.535156 0.859375 L 9.199219 0.859375 L 9.199219 198.640625 L 0.535156 198.640625 Z M 0.535156 0.859375 " clip-rule="nonzero"/></clipPath><clipPath id="1b26b94592"><path d="M 4.867188 0.859375 C 7.261719 0.859375 9.199219 2.796875 9.199219 5.191406 L 9.199219 194.304688 C 9.199219 196.699219 7.261719 198.636719 4.867188 198.636719 C 2.476562 198.636719 0.535156 196.699219 0.535156 194.304688 L 0.535156 5.191406 C 0.535156 2.796875 2.476562 0.859375 4.867188 0.859375 Z M 4.867188 0.859375 " clip-rule="nonzero"/></clipPath><clipPath id="bb6e5f8cc5"><rect x="0" width="10" y="0" height="199"/></clipPath><clipPath id="7f2c37bbda"><path d="M 215.226562 99.839844 L 246.726562 99.839844 L 246.726562 102.839844 L 215.226562 102.839844 Z M 215.226562 99.839844 " clip-rule="nonzero"/></clipPath><clipPath id="95317edfc0"><path d="M 215.226562 118.328125 L 246.726562 118.328125 L 246.726562 121.328125 L 215.226562 121.328125 Z M 215.226562 118.328125 " clip-rule="nonzero"/></clipPath><clipPath id="15589600d2"><path d="M 215.226562 136.820312 L 246.726562 136.820312 L 246.726562 139.820312 L 215.226562 139.820312 Z M 215.226562 136.820312 " clip-rule="nonzero"/></clipPath><clipPath id="2e08205d93"><path d="M 215.226562 155.308594 L 246.726562 155.308594 L 246.726562 158.308594 L 215.226562 158.308594 Z M 215.226562 155.308594 " clip-rule="nonzero"/></clipPath><clipPath id="ca5cc53a66"><path d="M 215.226562 173.796875 L 246.726562 173.796875 L 246.726562 176.796875 L 215.226562 176.796875 Z M 215.226562 173.796875 " clip-rule="nonzero"/></clipPath><clipPath id="988401ec36"><path d="M 215.226562 192.289062 L 246.726562 192.289062 L 246.726562 195.289062 L 215.226562 195.289062 Z M 215.226562 192.289062 " clip-rule="nonzero"/></clipPath><clipPath id="a05edea864"><path d="M 215.226562 210.777344 L 246.726562 210.777344 L 246.726562 213.777344 L 215.226562 213.777344 Z M 215.226562 210.777344 " clip-rule="nonzero"/></clipPath><clipPath id="96645b56aa"><path d="M 215.226562 229.269531 L 246.726562 229.269531 L 246.726562 232.269531 L 215.226562 232.269531 Z M 215.226562 229.269531 " clip-rule="nonzero"/></clipPath><clipPath id="e36276e691"><path d="M 215.226562 247.757812 L 246.726562 247.757812 L 246.726562 250.757812 L 215.226562 250.757812 Z M 215.226562 247.757812 " clip-rule="nonzero"/></clipPath><clipPath id="600add3549"><path d="M 215.226562 266.25 L 246.726562 266.25 L 246.726562 269.25 L 215.226562 269.25 Z M 215.226562 266.25 " clip-rule="nonzero"/></clipPath><clipPath id="a55aa04a77"><path d="M 275.960938 86.859375 L 284.625 86.859375 L 284.625 284.648438 L 275.960938 284.648438 Z M 275.960938 86.859375 " clip-rule="nonzero"/></clipPath><clipPath id="bc0ef87d2a"><path d="M 280.292969 86.859375 C 282.683594 86.859375 284.625 88.796875 284.625 91.191406 L 284.625 280.304688 C 284.625 282.699219 282.683594 284.636719 280.292969 284.636719 C 277.898438 284.636719 275.960938 282.699219 275.960938 280.304688 L 275.960938 91.191406 C 275.960938 88.796875 277.898438 86.859375 280.292969 86.859375 Z M 280.292969 86.859375 " clip-rule="nonzero"/></clipPath><clipPath id="6d201954e8"><path d="M 0.960938 0.859375 L 9.625 0.859375 L 9.625 198.640625 L 0.960938 198.640625 Z M 0.960938 0.859375 " clip-rule="nonzero"/></clipPath><clipPath id="5122a56125"><path d="M 5.292969 0.859375 C 7.683594 0.859375 9.625 2.796875 9.625 5.191406 L 9.625 194.304688 C 9.625 196.699219 7.683594 198.636719 5.292969 198.636719 C 2.898438 198.636719 0.960938 196.699219 0.960938 194.304688 L 0.960938 5.191406 C 0.960938 2.796875 2.898438 0.859375 5.292969 0.859375 Z M 5.292969 0.859375 " clip-rule="nonzero"/></clipPath><clipPath id="8f07c36283"><rect x="0" width="10" y="0" height="199"/></clipPath><clipPath id="01a05d5643"><path d="M 264.652344 99.839844 L 296 99.839844 L 296 102.839844 L 264.652344 102.839844 Z M 264.652344 99.839844 " clip-rule="nonzero"/></clipPath><clipPath id="939bd30921"><path d="M 264.652344 118.328125 L 296 118.328125 L 296 121.328125 L 264.652344 121.328125 Z M 264.652344 118.328125 " clip-rule="nonzero"/></clipPath><clipPath id="9a28d47e34"><path d="M 264.652344 136.820312 L 296 136.820312 L 296 139.820312 L 264.652344 139.820312 Z M 264.652344 136.820312 " clip-rule="nonzero"/></clipPath><clipPath id="fe34fa4230"><path d="M 264.652344 155.308594 L 296 155.308594 L 296 158.308594 L 264.652344 158.308594 Z M 264.652344 155.308594 " clip-rule="nonzero"/></clipPath><clipPath id="7ff8e39727"><path d="M 264.652344 173.796875 L 296 173.796875 L 296 176.796875 L 264.652344 176.796875 Z M 264.652344 173.796875 " clip-rule="nonzero"/></clipPath><clipPath id="b090c4cc28"><path d="M 264.652344 192.289062 L 296 192.289062 L 296 195.289062 L 264.652344 195.289062 Z M 264.652344 192.289062 " clip-rule="nonzero"/></clipPath><clipPath id="4e3309674e"><path d="M 264.652344 210.777344 L 296 210.777344 L 296 213.777344 L 264.652344 213.777344 Z M 264.652344 210.777344 " clip-rule="nonzero"/></clipPath><clipPath id="209d948e0d"><path d="M 264.652344 229.269531 L 296 229.269531 L 296 232.269531 L 264.652344 232.269531 Z M 264.652344 229.269531 " clip-rule="nonzero"/></clipPath><clipPath id="ab76643e00"><path d="M 264.652344 247.757812 L 296 247.757812 L 296 250.757812 L 264.652344 250.757812 Z M 264.652344 247.757812 " clip-rule="nonzero"/></clipPath><clipPath id="7182fb373b"><path d="M 264.652344 266.25 L 296 266.25 L 296 269.25 L 264.652344 269.25 Z M 264.652344 266.25 " clip-rule="nonzero"/></clipPath><clipPath id="e98f3e6cb4"><path d="M 325.386719 86.859375 L 334.050781 86.859375 L 334.050781 284.648438 L 325.386719 284.648438 Z M 325.386719 86.859375 " clip-rule="nonzero"/></clipPath><clipPath id="94345675de"><path d="M 329.71875 86.859375 C 332.109375 86.859375 334.050781 88.796875 334.050781 91.191406 L 334.050781 280.304688 C 334.050781 282.699219 332.109375 284.636719 329.71875 284.636719 C 327.324219 284.636719 325.386719 282.699219 325.386719 280.304688 L 325.386719 91.191406 C 325.386719 88.796875 327.324219 86.859375 329.71875 86.859375 Z M 329.71875 86.859375 " clip-rule="nonzero"/></clipPath><clipPath id="49fc4f2e26"><path d="M 0.386719 0.859375 L 9.050781 0.859375 L 9.050781 198.640625 L 0.386719 198.640625 Z M 0.386719 0.859375 " clip-rule="nonzero"/></clipPath><clipPath id="b8bb2c3e83"><path d="M 4.71875 0.859375 C 7.109375 0.859375 9.050781 2.796875 9.050781 5.191406 L 9.050781 194.304688 C 9.050781 196.699219 7.109375 198.636719 4.71875 198.636719 C 2.324219 198.636719 0.386719 196.699219 0.386719 194.304688 L 0.386719 5.191406 C 0.386719 2.796875 2.324219 0.859375 4.71875 0.859375 Z M 4.71875 0.859375 " clip-rule="nonzero"/></clipPath><clipPath id="1394ec8153"><rect x="0" width="10" y="0" height="199"/></clipPath><clipPath id="e6862ea4d2"><path d="M 314.074219 99.839844 L 345.574219 99.839844 L 345.574219 102.839844 L 314.074219 102.839844 Z M 314.074219 99.839844 " clip-rule="nonzero"/></clipPath><clipPath id="f5ffe20f91"><path d="M 314.074219 118.328125 L 345.574219 118.328125 L 345.574219 121.328125 L 314.074219 121.328125 Z M 314.074219 118.328125 " clip-rule="nonzero"/></clipPath><clipPath id="31fae63dc5"><path d="M 314.074219 136.820312 L 345.574219 136.820312 L 345.574219 139.820312 L 314.074219 139.820312 Z M 314.074219 136.820312 " clip-rule="nonzero"/></clipPath><clipPath id="58beb8edb6"><path d="M 314.074219 155.308594 L 345.574219 155.308594 L 345.574219 158.308594 L 314.074219 158.308594 Z M 314.074219 155.308594 " clip-rule="nonzero"/></clipPath><clipPath id="1aa02b203e"><path d="M 314.074219 173.796875 L 345.574219 173.796875 L 345.574219 176.796875 L 314.074219 176.796875 Z M 314.074219 173.796875 " clip-rule="nonzero"/></clipPath><clipPath id="b0928c7e34"><path d="M 314.074219 192.289062 L 345.574219 192.289062 L 345.574219 195.289062 L 314.074219 195.289062 Z M 314.074219 192.289062 " clip-rule="nonzero"/></clipPath><clipPath id="b37d177296"><path d="M 314.074219 210.777344 L 345.574219 210.777344 L 345.574219 213.777344 L 314.074219 213.777344 Z M 314.074219 210.777344 " clip-rule="nonzero"/></clipPath><clipPath id="4dadaa67c1"><path d="M 314.074219 229.269531 L 345.574219 229.269531 L 345.574219 232.269531 L 314.074219 232.269531 Z M 314.074219 229.269531 " clip-rule="nonzero"/></clipPath><clipPath id="9734f2daf6"><path d="M 314.074219 247.757812 L 345.574219 247.757812 L 345.574219 250.757812 L 314.074219 250.757812 Z M 314.074219 247.757812 " clip-rule="nonzero"/></clipPath><clipPath id="11fd9df93e"><path d="M 314.074219 266.25 L 345.574219 266.25 L 345.574219 269.25 L 314.074219 269.25 Z M 314.074219 266.25 " clip-rule="nonzero"/></clipPath><clipPath id="035af80ef8"><path d="M 78.261719 86.859375 L 86.925781 86.859375 L 86.925781 284.648438 L 78.261719 284.648438 Z M 78.261719 86.859375 " clip-rule="nonzero"/></clipPath><clipPath id="91c5eeeccf"><path d="M 82.59375 86.859375 C 84.984375 86.859375 86.925781 88.796875 86.925781 91.191406 L 86.925781 280.304688 C 86.925781 282.699219 84.984375 284.636719 82.59375 284.636719 C 80.199219 284.636719 78.261719 282.699219 78.261719 280.304688 L 78.261719 91.191406 C 78.261719 88.796875 80.199219 86.859375 82.59375 86.859375 Z M 82.59375 86.859375 " clip-rule="nonzero"/></clipPath><clipPath id="1f70e850d0"><path d="M 0.261719 0.859375 L 8.925781 0.859375 L 8.925781 198.640625 L 0.261719 198.640625 Z M 0.261719 0.859375 " clip-rule="nonzero"/></clipPath><clipPath id="58f51bc803"><path d="M 4.59375 0.859375 C 6.984375 0.859375 8.925781 2.796875 8.925781 5.191406 L 8.925781 194.304688 C 8.925781 196.699219 6.984375 198.636719 4.59375 198.636719 C 2.199219 198.636719 0.261719 196.699219 0.261719 194.304688 L 0.261719 5.191406 C 0.261719 2.796875 2.199219 0.859375 4.59375 0.859375 Z M 4.59375 0.859375 " clip-rule="nonzero"/></clipPath><clipPath id="15a5bfd737"><rect x="0" width="9" y="0" height="199"/></clipPath><clipPath id="e7fb6a256e"><path d="M 67 99.839844 L 98.453125 99.839844 L 98.453125 102.839844 L 67 102.839844 Z M 67 99.839844 " clip-rule="nonzero"/></clipPath><clipPath id="ac0bbd7998"><path d="M 67 118.328125 L 98.453125 118.328125 L 98.453125 121.328125 L 67 121.328125 Z M 67 118.328125 " clip-rule="nonzero"/></clipPath><clipPath id="3638f21fab"><path d="M 67 136.820312 L 98.453125 136.820312 L 98.453125 139.820312 L 67 139.820312 Z M 67 136.820312 " clip-rule="nonzero"/></clipPath><clipPath id="42e84df822"><path d="M 67 155.308594 L 98.453125 155.308594 L 98.453125 158.308594 L 67 158.308594 Z M 67 155.308594 " clip-rule="nonzero"/></clipPath><clipPath id="2884e71c12"><path d="M 67 173.796875 L 98.453125 173.796875 L 98.453125 176.796875 L 67 176.796875 Z M 67 173.796875 " clip-rule="nonzero"/></clipPath><clipPath id="671096315a"><path d="M 67 192.289062 L 98.453125 192.289062 L 98.453125 195.289062 L 67 195.289062 Z M 67 192.289062 " clip-rule="nonzero"/></clipPath><clipPath id="b70b2225d2"><path d="M 67 210.777344 L 98.453125 210.777344 L 98.453125 213.777344 L 67 213.777344 Z M 67 210.777344 " clip-rule="nonzero"/></clipPath><clipPath id="2fe63c40be"><path d="M 67 229.269531 L 98.453125 229.269531 L 98.453125 232.269531 L 67 232.269531 Z M 67 229.269531 " clip-rule="nonzero"/></clipPath><clipPath id="c95acaf640"><path d="M 67 247.757812 L 98.453125 247.757812 L 98.453125 250.757812 L 67 250.757812 Z M 67 247.757812 " clip-rule="nonzero"/></clipPath><clipPath id="ac94eba314"><path d="M 67 266.25 L 98.453125 266.25 L 98.453125 269.25 L 67 269.25 Z M 67 266.25 " clip-rule="nonzero"/></clipPath><clipPath id="5d09ec3001"><path d="M 177.109375 86.859375 L 185.773438 86.859375 L 185.773438 284.648438 L 177.109375 284.648438 Z M 177.109375 86.859375 " clip-rule="nonzero"/></clipPath><clipPath id="7249bea103"><path d="M 181.441406 86.859375 C 183.835938 86.859375 185.773438 88.796875 185.773438 91.191406 L 185.773438 280.304688 C 185.773438 282.699219 183.835938 284.636719 181.441406 284.636719 C 179.050781 284.636719 177.109375 282.699219 177.109375 280.304688 L 177.109375 91.191406 C 177.109375 88.796875 179.050781 86.859375 181.441406 86.859375 Z M 181.441406 86.859375 " clip-rule="nonzero"/></clipPath><clipPath id="f4593ddf6f"><path d="M 0.109375 0.859375 L 8.773438 0.859375 L 8.773438 198.640625 L 0.109375 198.640625 Z M 0.109375 0.859375 " clip-rule="nonzero"/></clipPath><clipPath id="184814f146"><path d="M 4.441406 0.859375 C 6.835938 0.859375 8.773438 2.796875 8.773438 5.191406 L 8.773438 194.304688 C 8.773438 196.699219 6.835938 198.636719 4.441406 198.636719 C 2.050781 198.636719 0.109375 196.699219 0.109375 194.304688 L 0.109375 5.191406 C 0.109375 2.796875 2.050781 0.859375 4.441406 0.859375 Z M 4.441406 0.859375 " clip-rule="nonzero"/></clipPath><clipPath id="762bbcf5f9"><rect x="0" width="9" y="0" height="199"/></clipPath><clipPath id="a8851f49e2"><path d="M 165.800781 99.839844 L 197.300781 99.839844 L 197.300781 102.839844 L 165.800781 102.839844 Z M 165.800781 99.839844 " clip-rule="nonzero"/></clipPath><clipPath id="8b766bb1dc"><path d="M 165.800781 118.328125 L 197.300781 118.328125 L 197.300781 121.328125 L 165.800781 121.328125 Z M 165.800781 118.328125 " clip-rule="nonzero"/></clipPath><clipPath id="1ed68a8b19"><path d="M 165.800781 136.820312 L 197.300781 136.820312 L 197.300781 139.820312 L 165.800781 139.820312 Z M 165.800781 136.820312 " clip-rule="nonzero"/></clipPath><clipPath id="dcb03e0cdf"><path d="M 165.800781 155.308594 L 197.300781 155.308594 L 197.300781 158.308594 L 165.800781 158.308594 Z M 165.800781 155.308594 " clip-rule="nonzero"/></clipPath><clipPath id="e3b53fa23d"><path d="M 165.800781 173.796875 L 197.300781 173.796875 L 197.300781 176.796875 L 165.800781 176.796875 Z M 165.800781 173.796875 " clip-rule="nonzero"/></clipPath><clipPath id="7fbabded10"><path d="M 165.800781 192.289062 L 197.300781 192.289062 L 197.300781 195.289062 L 165.800781 195.289062 Z M 165.800781 192.289062 " clip-rule="nonzero"/></clipPath><clipPath id="e6ca30510b"><path d="M 165.800781 210.777344 L 197.300781 210.777344 L 197.300781 213.777344 L 165.800781 213.777344 Z M 165.800781 210.777344 " clip-rule="nonzero"/></clipPath><clipPath id="06e4278da3"><path d="M 165.800781 229.269531 L 197.300781 229.269531 L 197.300781 232.269531 L 165.800781 232.269531 Z M 165.800781 229.269531 " clip-rule="nonzero"/></clipPath><clipPath id="5ee296a50f"><path d="M 165.800781 247.757812 L 197.300781 247.757812 L 197.300781 250.757812 L 165.800781 250.757812 Z M 165.800781 247.757812 " clip-rule="nonzero"/></clipPath><clipPath id="783defeabe"><path d="M 165.800781 266.25 L 197.300781 266.25 L 197.300781 269.25 L 165.800781 269.25 Z M 165.800781 266.25 " clip-rule="nonzero"/></clipPath></defs><g clip-path="url(#1c7be3faa0)"><g clip-path="url(#6ec9c32221)"><g transform="matrix(1, 0, 0, 1, 28, 86)"><g clip-path="url(#15c4d7d176)"><g clip-path="url(#2fb8760d8e)"><g clip-path="url(#0e845317ef)"><path fill="#d9d9d9" d="M 0.835938 0.859375 L 9.5 0.859375 L 9.5 198.648438 L 0.835938 198.648438 Z M 0.835938 0.859375 " fill-opacity="1" fill-rule="nonzero"/></g></g></g></g></g></g><g clip-path="url(#b893dd4014)"><path fill="#d9d9d9" d="M 17.578125 99.839844 L 17.578125 102.957031 L 48.75 102.957031 L 48.75 99.839844 Z M 17.578125 99.839844 " fill-opacity="1" fill-rule="nonzero"/></g><g clip-path="url(#ae2b503fe8)"><path fill="#d9d9d9" d="M 17.578125 118.328125 L 17.578125 121.445312 L 48.75 121.445312 L 48.75 118.328125 Z M 17.578125 118.328125 " fill-opacity="1" fill-rule="nonzero"/></g><g clip-path="url(#29ec7b9f50)"><path fill="#d9d9d9" d="M 17.578125 136.820312 L 17.578125 139.9375 L 48.75 139.9375 L 48.75 136.820312 Z M 17.578125 136.820312 " fill-opacity="1" fill-rule="nonzero"/></g><g clip-path="url(#99d2ef5656)"><path fill="#d9d9d9" d="M 17.578125 155.308594 L 17.578125 158.425781 L 48.75 158.425781 L 48.75 155.308594 Z M 17.578125 155.308594 " fill-opacity="1" fill-rule="nonzero"/></g><g clip-path="url(#222e01c4c9)"><path fill="#d9d9d9" d="M 17.578125 173.796875 L 17.578125 176.914062 L 48.75 176.914062 L 48.75 173.796875 Z M 17.578125 173.796875 " fill-opacity="1" fill-rule="nonzero"/></g><g clip-path="url(#8eea8c0302)"><path fill="#d9d9d9" d="M 17.578125 192.289062 L 17.578125 195.40625 L 48.75 195.40625 L 48.75 192.289062 Z M 17.578125 192.289062 " fill-opacity="1" fill-rule="nonzero"/></g><g clip-path="url(#0e685b1d2e)"><path fill="#d9d9d9" d="M 17.578125 210.777344 L 17.578125 213.894531 L 48.75 213.894531 L 48.75 210.777344 Z M 17.578125 210.777344 " fill-opacity="1" fill-rule="nonzero"/></g><g clip-path="url(#de4d9d3ae3)"><path fill="#d9d9d9" d="M 17.578125 229.269531 L 17.578125 232.386719 L 48.75 232.386719 L 48.75 229.269531 Z M 17.578125 229.269531 " fill-opacity="1" fill-rule="nonzero"/></g><g clip-path="url(#2987beae37)"><path fill="#d9d9d9" d="M 17.578125 247.757812 L 17.578125 250.875 L 48.75 250.875 L 48.75 247.757812 Z M 17.578125 247.757812 " fill-opacity="1" fill-rule="nonzero"/></g><g clip-path="url(#b17db2787a)"><path fill="#d9d9d9" d="M 17.578125 266.25 L 17.578125 269.367188 L 48.75 269.367188 L 48.75 266.25 Z M 17.578125 266.25 " fill-opacity="1" fill-rule="nonzero"/></g><g clip-path="url(#1047cf5612)"><g clip-path="url(#0222bd18c8)"><g transform="matrix(1, 0, 0, 1, 127, 86)"><g clip-path="url(#0517000bf5)"><g clip-path="url(#962b3ccd6b)"><g clip-path="url(#bbb09dffd5)"><path fill="#d9d9d9" d="M 0.683594 0.859375 L 9.351562 0.859375 L 9.351562 198.648438 L 0.683594 198.648438 Z M 0.683594 0.859375 " fill-opacity="1" fill-rule="nonzero"/></g></g></g></g></g></g><g clip-path="url(#da1362f785)"><path fill="#d9d9d9" d="M 116.429688 99.839844 L 116.429688 102.957031 L 147.601562 102.957031 L 147.601562 99.839844 Z M 116.429688 99.839844 " fill-opacity="1" fill-rule="nonzero"/></g><g clip-path="url(#3cf84b9343)"><path fill="#d9d9d9" d="M 116.429688 118.328125 L 116.429688 121.445312 L 147.601562 121.445312 L 147.601562 118.328125 Z M 116.429688 118.328125 " fill-opacity="1" fill-rule="nonzero"/></g><g clip-path="url(#e20d1e7b3e)"><path fill="#d9d9d9" d="M 116.429688 136.820312 L 116.429688 139.9375 L 147.601562 139.9375 L 147.601562 136.820312 Z M 116.429688 136.820312 " fill-opacity="1" fill-rule="nonzero"/></g><g clip-path="url(#bce04a9fb8)"><path fill="#d9d9d9" d="M 116.429688 155.308594 L 116.429688 158.425781 L 147.601562 158.425781 L 147.601562 155.308594 Z M 116.429688 155.308594 " fill-opacity="1" fill-rule="nonzero"/></g><g clip-path="url(#668e188b7d)"><path fill="#d9d9d9" d="M 116.429688 173.796875 L 116.429688 176.914062 L 147.601562 176.914062 L 147.601562 173.796875 Z M 116.429688 173.796875 " fill-opacity="1" fill-rule="nonzero"/></g><g clip-path="url(#271c5970ef)"><path fill="#d9d9d9" d="M 116.429688 192.289062 L 116.429688 195.40625 L 147.601562 195.40625 L 147.601562 192.289062 Z M 116.429688 192.289062 " fill-opacity="1" fill-rule="nonzero"/></g><g clip-path="url(#9ed3007483)"><path fill="#d9d9d9" d="M 116.429688 210.777344 L 116.429688 213.894531 L 147.601562 213.894531 L 147.601562 210.777344 Z M 116.429688 210.777344 " fill-opacity="1" fill-rule="nonzero"/></g><g clip-path="url(#e7492b9313)"><path fill="#d9d9d9" d="M 116.429688 229.269531 L 116.429688 232.386719 L 147.601562 232.386719 L 147.601562 229.269531 Z M 116.429688 229.269531 " fill-opacity="1" fill-rule="nonzero"/></g><g clip-path="url(#68cae03596)"><path fill="#d9d9d9" d="M 116.429688 247.757812 L 116.429688 250.875 L 147.601562 250.875 L 147.601562 247.757812 Z M 116.429688 247.757812 " fill-opacity="1" fill-rule="nonzero"/></g><g clip-path="url(#e8452e186e)"><path fill="#d9d9d9" d="M 116.429688 266.25 L 116.429688 269.367188 L 147.601562 269.367188 L 147.601562 266.25 Z M 116.429688 266.25 " fill-opacity="1" fill-rule="nonzero"/></g><g clip-path="url(#b651e1ec6f)"><g clip-path="url(#9496f578ab)"><g transform="matrix(1, 0, 0, 1, 226, 86)"><g clip-path="url(#bb6e5f8cc5)"><g clip-path="url(#c2681512e3)"><g clip-path="url(#1b26b94592)"><path fill="#d9d9d9" d="M 0.535156 0.859375 L 9.199219 0.859375 L 9.199219 198.648438 L 0.535156 198.648438 Z M 0.535156 0.859375 " fill-opacity="1" fill-rule="nonzero"/></g></g></g></g></g></g><g clip-path="url(#7f2c37bbda)"><path fill="#d9d9d9" d="M 215.277344 99.839844 L 215.277344 102.957031 L 246.449219 102.957031 L 246.449219 99.839844 Z M 215.277344 99.839844 " fill-opacity="1" fill-rule="nonzero"/></g><g clip-path="url(#95317edfc0)"><path fill="#d9d9d9" d="M 215.277344 118.328125 L 215.277344 121.445312 L 246.449219 121.445312 L 246.449219 118.328125 Z M 215.277344 118.328125 " fill-opacity="1" fill-rule="nonzero"/></g><g clip-path="url(#15589600d2)"><path fill="#d9d9d9" d="M 215.277344 136.820312 L 215.277344 139.9375 L 246.449219 139.9375 L 246.449219 136.820312 Z M 215.277344 136.820312 " fill-opacity="1" fill-rule="nonzero"/></g><g clip-path="url(#2e08205d93)"><path fill="#d9d9d9" d="M 215.277344 155.308594 L 215.277344 158.425781 L 246.449219 158.425781 L 246.449219 155.308594 Z M 215.277344 155.308594 " fill-opacity="1" fill-rule="nonzero"/></g><g clip-path="url(#ca5cc53a66)"><path fill="#d9d9d9" d="M 215.277344 173.796875 L 215.277344 176.914062 L 246.449219 176.914062 L 246.449219 173.796875 Z M 215.277344 173.796875 " fill-opacity="1" fill-rule="nonzero"/></g><g clip-path="url(#988401ec36)"><path fill="#d9d9d9" d="M 215.277344 192.289062 L 215.277344 195.40625 L 246.449219 195.40625 L 246.449219 192.289062 Z M 215.277344 192.289062 " fill-opacity="1" fill-rule="nonzero"/></g><g clip-path="url(#a05edea864)"><path fill="#d9d9d9" d="M 215.277344 210.777344 L 215.277344 213.894531 L 246.449219 213.894531 L 246.449219 210.777344 Z M 215.277344 210.777344 " fill-opacity="1" fill-rule="nonzero"/></g><g clip-path="url(#96645b56aa)"><path fill="#d9d9d9" d="M 215.277344 229.269531 L 215.277344 232.386719 L 246.449219 232.386719 L 246.449219 229.269531 Z M 215.277344 229.269531 " fill-opacity="1" fill-rule="nonzero"/></g><g clip-path="url(#e36276e691)"><path fill="#d9d9d9" d="M 215.277344 247.757812 L 215.277344 250.875 L 246.449219 250.875 L 246.449219 247.757812 Z M 215.277344 247.757812 " fill-opacity="1" fill-rule="nonzero"/></g><g clip-path="url(#600add3549)"><path fill="#d9d9d9" d="M 215.277344 266.25 L 215.277344 269.367188 L 246.449219 269.367188 L 246.449219 266.25 Z M 215.277344 266.25 " fill-opacity="1" fill-rule="nonzero"/></g><g clip-path="url(#a55aa04a77)"><g clip-path="url(#bc0ef87d2a)"><g transform="matrix(1, 0, 0, 1, 275, 86)"><g clip-path="url(#8f07c36283)"><g clip-path="url(#6d201954e8)"><g clip-path="url(#5122a56125)"><path fill="#d9d9d9" d="M 0.960938 0.859375 L 9.625 0.859375 L 9.625 198.648438 L 0.960938 198.648438 Z M 0.960938 0.859375 " fill-opacity="1" fill-rule="nonzero"/></g></g></g></g></g></g><g clip-path="url(#01a05d5643)"><path fill="#d9d9d9" d="M 264.703125 99.839844 L 264.703125 102.957031 L 295.875 102.957031 L 295.875 99.839844 Z M 264.703125 99.839844 " fill-opacity="1" fill-rule="nonzero"/></g><g clip-path="url(#939bd30921)"><path fill="#d9d9d9" d="M 264.703125 118.328125 L 264.703125 121.445312 L 295.875 121.445312 L 295.875 118.328125 Z M 264.703125 118.328125 " fill-opacity="1" fill-rule="nonzero"/></g><g clip-path="url(#9a28d47e34)"><path fill="#d9d9d9" d="M 264.703125 136.820312 L 264.703125 139.9375 L 295.875 139.9375 L 295.875 136.820312 Z M 264.703125 136.820312 " fill-opacity="1" fill-rule="nonzero"/></g><g clip-path="url(#fe34fa4230)"><path fill="#d9d9d9" d="M 264.703125 155.308594 L 264.703125 158.425781 L 295.875 158.425781 L 295.875 155.308594 Z M 264.703125 155.308594 " fill-opacity="1" fill-rule="nonzero"/></g><g clip-path="url(#7ff8e39727)"><path fill="#d9d9d9" d="M 264.703125 173.796875 L 264.703125 176.914062 L 295.875 176.914062 L 295.875 173.796875 Z M 264.703125 173.796875 " fill-opacity="1" fill-rule="nonzero"/></g><g clip-path="url(#b090c4cc28)"><path fill="#d9d9d9" d="M 264.703125 192.289062 L 264.703125 195.40625 L 295.875 195.40625 L 295.875 192.289062 Z M 264.703125 192.289062 " fill-opacity="1" fill-rule="nonzero"/></g><g clip-path="url(#4e3309674e)"><path fill="#d9d9d9" d="M 264.703125 210.777344 L 264.703125 213.894531 L 295.875 213.894531 L 295.875 210.777344 Z M 264.703125 210.777344 " fill-opacity="1" fill-rule="nonzero"/></g><g clip-path="url(#209d948e0d)"><path fill="#d9d9d9" d="M 264.703125 229.269531 L 264.703125 232.386719 L 295.875 232.386719 L 295.875 229.269531 Z M 264.703125 229.269531 " fill-opacity="1" fill-rule="nonzero"/></g><g clip-path="url(#ab76643e00)"><path fill="#d9d9d9" d="M 264.703125 247.757812 L 264.703125 250.875 L 295.875 250.875 L 295.875 247.757812 Z M 264.703125 247.757812 " fill-opacity="1" fill-rule="nonzero"/></g><g clip-path="url(#7182fb373b)"><path fill="#d9d9d9" d="M 264.703125 266.25 L 264.703125 269.367188 L 295.875 269.367188 L 295.875 266.25 Z M 264.703125 266.25 " fill-opacity="1" fill-rule="nonzero"/></g><g clip-path="url(#e98f3e6cb4)"><g clip-path="url(#94345675de)"><g transform="matrix(1, 0, 0, 1, 325, 86)"><g clip-path="url(#1394ec8153)"><g clip-path="url(#49fc4f2e26)"><g clip-path="url(#b8bb2c3e83)"><path fill="#d9d9d9" d="M 0.386719 0.859375 L 9.050781 0.859375 L 9.050781 198.648438 L 0.386719 198.648438 Z M 0.386719 0.859375 " fill-opacity="1" fill-rule="nonzero"/></g></g></g></g></g></g><g clip-path="url(#e6862ea4d2)"><path fill="#d9d9d9" d="M 314.128906 99.839844 L 314.128906 102.957031 L 345.300781 102.957031 L 345.300781 99.839844 Z M 314.128906 99.839844 " fill-opacity="1" fill-rule="nonzero"/></g><g clip-path="url(#f5ffe20f91)"><path fill="#d9d9d9" d="M 314.128906 118.328125 L 314.128906 121.445312 L 345.300781 121.445312 L 345.300781 118.328125 Z M 314.128906 118.328125 " fill-opacity="1" fill-rule="nonzero"/></g><g clip-path="url(#31fae63dc5)"><path fill="#d9d9d9" d="M 314.128906 136.820312 L 314.128906 139.9375 L 345.300781 139.9375 L 345.300781 136.820312 Z M 314.128906 136.820312 " fill-opacity="1" fill-rule="nonzero"/></g><g clip-path="url(#58beb8edb6)"><path fill="#d9d9d9" d="M 314.128906 155.308594 L 314.128906 158.425781 L 345.300781 158.425781 L 345.300781 155.308594 Z M 314.128906 155.308594 " fill-opacity="1" fill-rule="nonzero"/></g><g clip-path="url(#1aa02b203e)"><path fill="#d9d9d9" d="M 314.128906 173.796875 L 314.128906 176.914062 L 345.300781 176.914062 L 345.300781 173.796875 Z M 314.128906 173.796875 " fill-opacity="1" fill-rule="nonzero"/></g><g clip-path="url(#b0928c7e34)"><path fill="#d9d9d9" d="M 314.128906 192.289062 L 314.128906 195.40625 L 345.300781 195.40625 L 345.300781 192.289062 Z M 314.128906 192.289062 " fill-opacity="1" fill-rule="nonzero"/></g><g clip-path="url(#b37d177296)"><path fill="#d9d9d9" d="M 314.128906 210.777344 L 314.128906 213.894531 L 345.300781 213.894531 L 345.300781 210.777344 Z M 314.128906 210.777344 " fill-opacity="1" fill-rule="nonzero"/></g><g clip-path="url(#4dadaa67c1)"><path fill="#d9d9d9" d="M 314.128906 229.269531 L 314.128906 232.386719 L 345.300781 232.386719 L 345.300781 229.269531 Z M 314.128906 229.269531 " fill-opacity="1" fill-rule="nonzero"/></g><g clip-path="url(#9734f2daf6)"><path fill="#d9d9d9" d="M 314.128906 247.757812 L 314.128906 250.875 L 345.300781 250.875 L 345.300781 247.757812 Z M 314.128906 247.757812 " fill-opacity="1" fill-rule="nonzero"/></g><g clip-path="url(#11fd9df93e)"><path fill="#d9d9d9" d="M 314.128906 266.25 L 314.128906 269.367188 L 345.300781 269.367188 L 345.300781 266.25 Z M 314.128906 266.25 " fill-opacity="1" fill-rule="nonzero"/></g><g clip-path="url(#035af80ef8)"><g clip-path="url(#91c5eeeccf)"><g transform="matrix(1, 0, 0, 1, 78, 86)"><g clip-path="url(#15a5bfd737)"><g clip-path="url(#1f70e850d0)"><g clip-path="url(#58f51bc803)"><path fill="#d9d9d9" d="M 0.261719 0.859375 L 8.925781 0.859375 L 8.925781 198.648438 L 0.261719 198.648438 Z M 0.261719 0.859375 " fill-opacity="1" fill-rule="nonzero"/></g></g></g></g></g></g><g clip-path="url(#e7fb6a256e)"><path fill="#d9d9d9" d="M 67.003906 99.839844 L 67.003906 102.957031 L 98.175781 102.957031 L 98.175781 99.839844 Z M 67.003906 99.839844 " fill-opacity="1" fill-rule="nonzero"/></g><g clip-path="url(#ac0bbd7998)"><path fill="#d9d9d9" d="M 67.003906 118.328125 L 67.003906 121.445312 L 98.175781 121.445312 L 98.175781 118.328125 Z M 67.003906 118.328125 " fill-opacity="1" fill-rule="nonzero"/></g><g clip-path="url(#3638f21fab)"><path fill="#d9d9d9" d="M 67.003906 136.820312 L 67.003906 139.9375 L 98.175781 139.9375 L 98.175781 136.820312 Z M 67.003906 136.820312 " fill-opacity="1" fill-rule="nonzero"/></g><g clip-path="url(#42e84df822)"><path fill="#d9d9d9" d="M 67.003906 155.308594 L 67.003906 158.425781 L 98.175781 158.425781 L 98.175781 155.308594 Z M 67.003906 155.308594 " fill-opacity="1" fill-rule="nonzero"/></g><g clip-path="url(#2884e71c12)"><path fill="#d9d9d9" d="M 67.003906 173.796875 L 67.003906 176.914062 L 98.175781 176.914062 L 98.175781 173.796875 Z M 67.003906 173.796875 " fill-opacity="1" fill-rule="nonzero"/></g><g clip-path="url(#671096315a)"><path fill="#d9d9d9" d="M 67.003906 192.289062 L 67.003906 195.40625 L 98.175781 195.40625 L 98.175781 192.289062 Z M 67.003906 192.289062 " fill-opacity="1" fill-rule="nonzero"/></g><g clip-path="url(#b70b2225d2)"><path fill="#d9d9d9" d="M 67.003906 210.777344 L 67.003906 213.894531 L 98.175781 213.894531 L 98.175781 210.777344 Z M 67.003906 210.777344 " fill-opacity="1" fill-rule="nonzero"/></g><g clip-path="url(#2fe63c40be)"><path fill="#d9d9d9" d="M 67.003906 229.269531 L 67.003906 232.386719 L 98.175781 232.386719 L 98.175781 229.269531 Z M 67.003906 229.269531 " fill-opacity="1" fill-rule="nonzero"/></g><g clip-path="url(#c95acaf640)"><path fill="#d9d9d9" d="M 67.003906 247.757812 L 67.003906 250.875 L 98.175781 250.875 L 98.175781 247.757812 Z M 67.003906 247.757812 " fill-opacity="1" fill-rule="nonzero"/></g><g clip-path="url(#ac94eba314)"><path fill="#d9d9d9" d="M 67.003906 266.25 L 67.003906 269.367188 L 98.175781 269.367188 L 98.175781 266.25 Z M 67.003906 266.25 " fill-opacity="1" fill-rule="nonzero"/></g><g clip-path="url(#5d09ec3001)"><g clip-path="url(#7249bea103)"><g transform="matrix(1, 0, 0, 1, 177, 86)"><g clip-path="url(#762bbcf5f9)"><g clip-path="url(#f4593ddf6f)"><g clip-path="url(#184814f146)"><path fill="#d9d9d9" d="M 0.109375 0.859375 L 8.773438 0.859375 L 8.773438 198.648438 L 0.109375 198.648438 Z M 0.109375 0.859375 " fill-opacity="1" fill-rule="nonzero"/></g></g></g></g></g></g><g clip-path="url(#a8851f49e2)"><path fill="#d9d9d9" d="M 165.855469 99.839844 L 165.855469 102.957031 L 197.027344 102.957031 L 197.027344 99.839844 Z M 165.855469 99.839844 " fill-opacity="1" fill-rule="nonzero"/></g><g clip-path="url(#8b766bb1dc)"><path fill="#d9d9d9" d="M 165.855469 118.328125 L 165.855469 121.445312 L 197.027344 121.445312 L 197.027344 118.328125 Z M 165.855469 118.328125 " fill-opacity="1" fill-rule="nonzero"/></g><g clip-path="url(#1ed68a8b19)"><path fill="#d9d9d9" d="M 165.855469 136.820312 L 165.855469 139.9375 L 197.027344 139.9375 L 197.027344 136.820312 Z M 165.855469 136.820312 " fill-opacity="1" fill-rule="nonzero"/></g><g clip-path="url(#dcb03e0cdf)"><path fill="#d9d9d9" d="M 165.855469 155.308594 L 165.855469 158.425781 L 197.027344 158.425781 L 197.027344 155.308594 Z M 165.855469 155.308594 " fill-opacity="1" fill-rule="nonzero"/></g><g clip-path="url(#e3b53fa23d)"><path fill="#d9d9d9" d="M 165.855469 173.796875 L 165.855469 176.914062 L 197.027344 176.914062 L 197.027344 173.796875 Z M 165.855469 173.796875 " fill-opacity="1" fill-rule="nonzero"/></g><g clip-path="url(#7fbabded10)"><path fill="#d9d9d9" d="M 165.855469 192.289062 L 165.855469 195.40625 L 197.027344 195.40625 L 197.027344 192.289062 Z M 165.855469 192.289062 " fill-opacity="1" fill-rule="nonzero"/></g><g clip-path="url(#e6ca30510b)"><path fill="#d9d9d9" d="M 165.855469 210.777344 L 165.855469 213.894531 L 197.027344 213.894531 L 197.027344 210.777344 Z M 165.855469 210.777344 " fill-opacity="1" fill-rule="nonzero"/></g><g clip-path="url(#06e4278da3)"><path fill="#d9d9d9" d="M 165.855469 229.269531 L 165.855469 232.386719 L 197.027344 232.386719 L 197.027344 229.269531 Z M 165.855469 229.269531 " fill-opacity="1" fill-rule="nonzero"/></g><g clip-path="url(#5ee296a50f)"><path fill="#d9d9d9" d="M 165.855469 247.757812 L 165.855469 250.875 L 197.027344 250.875 L 197.027344 247.757812 Z M 165.855469 247.757812 " fill-opacity="1" fill-rule="nonzero"/></g><g clip-path="url(#783defeabe)"><path fill="#d9d9d9" d="M 165.855469 266.25 L 165.855469 269.367188 L 197.027344 269.367188 L 197.027344 266.25 Z M 165.855469 266.25 " fill-opacity="1" fill-rule="nonzero"/></g><g fill="#d9d9d9" fill-opacity="1"><g transform="translate(14.642841, 306.561573)"><g><path d="M 4.4375 0.140625 C 3.738281 0.140625 3.113281 -0.0195312 2.5625 -0.34375 C 2.019531 -0.664062 1.585938 -1.175781 1.265625 -1.875 C 0.941406 -2.582031 0.78125 -3.472656 0.78125 -4.546875 C 0.78125 -5.648438 0.945312 -6.5625 1.28125 -7.28125 C 1.625 -8.007812 2.085938 -8.546875 2.671875 -8.890625 C 3.265625 -9.234375 3.9375 -9.40625 4.6875 -9.40625 C 5.320312 -9.40625 5.863281 -9.316406 6.3125 -9.140625 C 6.769531 -8.960938 7.125 -8.691406 7.375 -8.328125 L 6.484375 -7.171875 L 6.328125 -7.171875 C 5.941406 -7.640625 5.394531 -7.875 4.6875 -7.875 C 3.363281 -7.875 2.691406 -6.90625 2.671875 -4.96875 L 2.796875 -4.921875 C 3.015625 -5.316406 3.300781 -5.617188 3.65625 -5.828125 C 4.007812 -6.046875 4.453125 -6.15625 4.984375 -6.15625 C 5.566406 -6.15625 6.066406 -6.03125 6.484375 -5.78125 C 6.898438 -5.539062 7.21875 -5.191406 7.4375 -4.734375 C 7.664062 -4.285156 7.78125 -3.75 7.78125 -3.125 C 7.78125 -2.445312 7.644531 -1.863281 7.375 -1.375 C 7.101562 -0.882812 6.71875 -0.507812 6.21875 -0.25 C 5.71875 0.0078125 5.125 0.140625 4.4375 0.140625 Z M 4.40625 -1.4375 C 4.875 -1.4375 5.242188 -1.578125 5.515625 -1.859375 C 5.785156 -2.140625 5.921875 -2.535156 5.921875 -3.046875 C 5.921875 -3.546875 5.785156 -3.9375 5.515625 -4.21875 C 5.242188 -4.5 4.875 -4.640625 4.40625 -4.640625 C 4.082031 -4.640625 3.800781 -4.570312 3.5625 -4.4375 C 3.332031 -4.3125 3.15625 -4.128906 3.03125 -3.890625 C 2.90625 -3.648438 2.84375 -3.367188 2.84375 -3.046875 C 2.84375 -2.546875 2.976562 -2.148438 3.25 -1.859375 C 3.53125 -1.578125 3.914062 -1.4375 4.40625 -1.4375 Z M 4.40625 -1.4375 "/></g></g></g><g fill="#d9d9d9" fill-opacity="1"><g transform="translate(23.069995, 306.561573)"><g><path d="M 4.53125 0.140625 C 3.769531 0.140625 3.109375 -0.0234375 2.546875 -0.359375 C 1.992188 -0.703125 1.5625 -1.226562 1.25 -1.9375 C 0.9375 -2.65625 0.78125 -3.554688 0.78125 -4.640625 C 0.78125 -5.722656 0.9375 -6.617188 1.25 -7.328125 C 1.5625 -8.046875 1.992188 -8.570312 2.546875 -8.90625 C 3.109375 -9.238281 3.769531 -9.40625 4.53125 -9.40625 C 5.289062 -9.40625 5.953125 -9.238281 6.515625 -8.90625 C 7.078125 -8.570312 7.515625 -8.046875 7.828125 -7.328125 C 8.140625 -6.617188 8.296875 -5.722656 8.296875 -4.640625 C 8.296875 -3.554688 8.140625 -2.65625 7.828125 -1.9375 C 7.515625 -1.226562 7.078125 -0.703125 6.515625 -0.359375 C 5.953125 -0.0234375 5.289062 0.140625 4.53125 0.140625 Z M 4.53125 -1.421875 C 4.945312 -1.421875 5.296875 -1.519531 5.578125 -1.71875 C 5.859375 -1.925781 6.070312 -2.265625 6.21875 -2.734375 C 6.363281 -3.210938 6.4375 -3.847656 6.4375 -4.640625 C 6.4375 -5.429688 6.363281 -6.0625 6.21875 -6.53125 C 6.070312 -7.007812 5.859375 -7.347656 5.578125 -7.546875 C 5.296875 -7.753906 4.945312 -7.859375 4.53125 -7.859375 C 4.113281 -7.859375 3.765625 -7.753906 3.484375 -7.546875 C 3.210938 -7.347656 3 -7.007812 2.84375 -6.53125 C 2.695312 -6.0625 2.625 -5.429688 2.625 -4.640625 C 2.625 -3.847656 2.695312 -3.210938 2.84375 -2.734375 C 3 -2.265625 3.210938 -1.925781 3.484375 -1.71875 C 3.765625 -1.519531 4.113281 -1.421875 4.53125 -1.421875 Z M 4.53125 -1.421875 "/></g></g></g><g fill="#d9d9d9" fill-opacity="1"><g transform="translate(32.138075, 306.561573)"><g/></g></g><g fill="#d9d9d9" fill-opacity="1"><g transform="translate(35.203077, 306.561573)"><g><path d="M 7.203125 -5.796875 L 7.203125 -9.28125 L 9.03125 -9.28125 L 9.03125 0 L 7.203125 0 L 7.203125 -4.234375 L 3.046875 -4.234375 L 3.046875 0 L 1.203125 0 L 1.203125 -9.28125 L 3.046875 -9.28125 L 3.046875 -5.796875 Z M 7.203125 -5.796875 "/></g></g></g><g fill="#d9d9d9" fill-opacity="1"><g transform="translate(45.438775, 306.561573)"><g><path d="M 5.875 0 L 0.375 0 L 0.375 -1.453125 L 3.765625 -5.484375 L 3.71875 -5.609375 L 0.53125 -5.609375 L 0.53125 -7.015625 L 5.828125 -7.015625 L 5.828125 -5.546875 L 2.4375 -1.53125 L 2.484375 -1.390625 L 5.875 -1.390625 Z M 5.875 0 "/></g></g></g><g fill="#d9d9d9" fill-opacity="1"><g transform="translate(60.942752, 306.561573)"><g><path d="M 0.484375 0 L 0.484375 -1.515625 L 2.734375 -1.515625 L 2.734375 -7.296875 L 2.578125 -7.328125 C 2.265625 -7.179688 1.953125 -7.0625 1.640625 -6.96875 C 1.335938 -6.882812 0.988281 -6.816406 0.59375 -6.765625 L 0.59375 -8.328125 C 1.625 -8.546875 2.457031 -8.863281 3.09375 -9.28125 L 4.546875 -9.28125 L 4.546875 -1.515625 L 6.546875 -1.515625 L 6.546875 0 Z M 0.484375 0 "/></g></g></g><g fill="#d9d9d9" fill-opacity="1"><g transform="translate(67.78982, 306.561573)"><g><path d="M 3.859375 0.140625 C 2.929688 0.140625 2.195312 -0.0507812 1.65625 -0.4375 C 1.113281 -0.832031 0.757812 -1.378906 0.59375 -2.078125 L 1.984375 -2.703125 L 2.140625 -2.671875 C 2.273438 -2.265625 2.472656 -1.957031 2.734375 -1.75 C 3.003906 -1.539062 3.375 -1.4375 3.84375 -1.4375 C 4.332031 -1.4375 4.707031 -1.570312 4.96875 -1.84375 C 5.226562 -2.125 5.359375 -2.535156 5.359375 -3.078125 C 5.359375 -3.617188 5.226562 -4.03125 4.96875 -4.3125 C 4.707031 -4.59375 4.351562 -4.734375 3.90625 -4.734375 C 3.5625 -4.734375 3.269531 -4.65625 3.03125 -4.5 C 2.800781 -4.351562 2.609375 -4.132812 2.453125 -3.84375 L 0.9375 -3.953125 L 1.125 -9.28125 L 6.65625 -9.28125 L 6.65625 -7.734375 L 2.671875 -7.734375 L 2.578125 -5.375 L 2.71875 -5.34375 C 2.9375 -5.625 3.191406 -5.835938 3.484375 -5.984375 C 3.785156 -6.128906 4.148438 -6.203125 4.578125 -6.203125 C 5.109375 -6.203125 5.570312 -6.082031 5.96875 -5.84375 C 6.363281 -5.613281 6.664062 -5.265625 6.875 -4.796875 C 7.09375 -4.335938 7.203125 -3.773438 7.203125 -3.109375 C 7.203125 -2.429688 7.070312 -1.847656 6.8125 -1.359375 C 6.550781 -0.878906 6.171875 -0.507812 5.671875 -0.25 C 5.171875 0.0078125 4.566406 0.140625 3.859375 0.140625 Z M 3.859375 0.140625 "/></g></g></g><g fill="#d9d9d9" fill-opacity="1"><g transform="translate(75.607782, 306.561573)"><g><path d="M 4.53125 0.140625 C 3.769531 0.140625 3.109375 -0.0234375 2.546875 -0.359375 C 1.992188 -0.703125 1.5625 -1.226562 1.25 -1.9375 C 0.9375 -2.65625 0.78125 -3.554688 0.78125 -4.640625 C 0.78125 -5.722656 0.9375 -6.617188 1.25 -7.328125 C 1.5625 -8.046875 1.992188 -8.570312 2.546875 -8.90625 C 3.109375 -9.238281 3.769531 -9.40625 4.53125 -9.40625 C 5.289062 -9.40625 5.953125 -9.238281 6.515625 -8.90625 C 7.078125 -8.570312 7.515625 -8.046875 7.828125 -7.328125 C 8.140625 -6.617188 8.296875 -5.722656 8.296875 -4.640625 C 8.296875 -3.554688 8.140625 -2.65625 7.828125 -1.9375 C 7.515625 -1.226562 7.078125 -0.703125 6.515625 -0.359375 C 5.953125 -0.0234375 5.289062 0.140625 4.53125 0.140625 Z M 4.53125 -1.421875 C 4.945312 -1.421875 5.296875 -1.519531 5.578125 -1.71875 C 5.859375 -1.925781 6.070312 -2.265625 6.21875 -2.734375 C 6.363281 -3.210938 6.4375 -3.847656 6.4375 -4.640625 C 6.4375 -5.429688 6.363281 -6.0625 6.21875 -6.53125 C 6.070312 -7.007812 5.859375 -7.347656 5.578125 -7.546875 C 5.296875 -7.753906 4.945312 -7.859375 4.53125 -7.859375 C 4.113281 -7.859375 3.765625 -7.753906 3.484375 -7.546875 C 3.210938 -7.347656 3 -7.007812 2.84375 -6.53125 C 2.695312 -6.0625 2.625 -5.429688 2.625 -4.640625 C 2.625 -3.847656 2.695312 -3.210938 2.84375 -2.734375 C 3 -2.265625 3.210938 -1.925781 3.484375 -1.71875 C 3.765625 -1.519531 4.113281 -1.421875 4.53125 -1.421875 Z M 4.53125 -1.421875 "/></g></g></g><g fill="#d9d9d9" fill-opacity="1"><g transform="translate(84.675862, 306.561573)"><g/></g></g><g fill="#d9d9d9" fill-opacity="1"><g transform="translate(87.740865, 306.561573)"><g><path d="M 7.203125 -5.796875 L 7.203125 -9.28125 L 9.03125 -9.28125 L 9.03125 0 L 7.203125 0 L 7.203125 -4.234375 L 3.046875 -4.234375 L 3.046875 0 L 1.203125 0 L 1.203125 -9.28125 L 3.046875 -9.28125 L 3.046875 -5.796875 Z M 7.203125 -5.796875 "/></g></g></g><g fill="#d9d9d9" fill-opacity="1"><g transform="translate(97.976563, 306.561573)"><g><path d="M 5.875 0 L 0.375 0 L 0.375 -1.453125 L 3.765625 -5.484375 L 3.71875 -5.609375 L 0.53125 -5.609375 L 0.53125 -7.015625 L 5.828125 -7.015625 L 5.828125 -5.546875 L 2.4375 -1.53125 L 2.484375 -1.390625 L 5.875 -1.390625 Z M 5.875 0 "/></g></g></g><g fill="#d9d9d9" fill-opacity="1"><g transform="translate(109.12392, 306.561573)"><g><path d="M 6.296875 0 L 4.546875 0 L 4.546875 -2.015625 L 0.3125 -2.015625 L 0.3125 -3.5 L 3.953125 -9.28125 L 6.296875 -9.28125 L 6.296875 -3.5 L 7.734375 -3.5 L 7.734375 -2.015625 L 6.296875 -2.015625 Z M 2.203125 -3.625 L 2.25 -3.5 L 4.546875 -3.5 L 4.546875 -7.09375 L 4.40625 -7.109375 Z M 2.203125 -3.625 "/></g></g></g><g fill="#d9d9d9" fill-opacity="1"><g transform="translate(117.208403, 306.561573)"><g><path d="M 4.53125 0.140625 C 3.769531 0.140625 3.109375 -0.0234375 2.546875 -0.359375 C 1.992188 -0.703125 1.5625 -1.226562 1.25 -1.9375 C 0.9375 -2.65625 0.78125 -3.554688 0.78125 -4.640625 C 0.78125 -5.722656 0.9375 -6.617188 1.25 -7.328125 C 1.5625 -8.046875 1.992188 -8.570312 2.546875 -8.90625 C 3.109375 -9.238281 3.769531 -9.40625 4.53125 -9.40625 C 5.289062 -9.40625 5.953125 -9.238281 6.515625 -8.90625 C 7.078125 -8.570312 7.515625 -8.046875 7.828125 -7.328125 C 8.140625 -6.617188 8.296875 -5.722656 8.296875 -4.640625 C 8.296875 -3.554688 8.140625 -2.65625 7.828125 -1.9375 C 7.515625 -1.226562 7.078125 -0.703125 6.515625 -0.359375 C 5.953125 -0.0234375 5.289062 0.140625 4.53125 0.140625 Z M 4.53125 -1.421875 C 4.945312 -1.421875 5.296875 -1.519531 5.578125 -1.71875 C 5.859375 -1.925781 6.070312 -2.265625 6.21875 -2.734375 C 6.363281 -3.210938 6.4375 -3.847656 6.4375 -4.640625 C 6.4375 -5.429688 6.363281 -6.0625 6.21875 -6.53125 C 6.070312 -7.007812 5.859375 -7.347656 5.578125 -7.546875 C 5.296875 -7.753906 4.945312 -7.859375 4.53125 -7.859375 C 4.113281 -7.859375 3.765625 -7.753906 3.484375 -7.546875 C 3.210938 -7.347656 3 -7.007812 2.84375 -6.53125 C 2.695312 -6.0625 2.625 -5.429688 2.625 -4.640625 C 2.625 -3.847656 2.695312 -3.210938 2.84375 -2.734375 C 3 -2.265625 3.210938 -1.925781 3.484375 -1.71875 C 3.765625 -1.519531 4.113281 -1.421875 4.53125 -1.421875 Z M 4.53125 -1.421875 "/></g></g></g><g fill="#d9d9d9" fill-opacity="1"><g transform="translate(126.276484, 306.561573)"><g><path d="M 4.53125 0.140625 C 3.769531 0.140625 3.109375 -0.0234375 2.546875 -0.359375 C 1.992188 -0.703125 1.5625 -1.226562 1.25 -1.9375 C 0.9375 -2.65625 0.78125 -3.554688 0.78125 -4.640625 C 0.78125 -5.722656 0.9375 -6.617188 1.25 -7.328125 C 1.5625 -8.046875 1.992188 -8.570312 2.546875 -8.90625 C 3.109375 -9.238281 3.769531 -9.40625 4.53125 -9.40625 C 5.289062 -9.40625 5.953125 -9.238281 6.515625 -8.90625 C 7.078125 -8.570312 7.515625 -8.046875 7.828125 -7.328125 C 8.140625 -6.617188 8.296875 -5.722656 8.296875 -4.640625 C 8.296875 -3.554688 8.140625 -2.65625 7.828125 -1.9375 C 7.515625 -1.226562 7.078125 -0.703125 6.515625 -0.359375 C 5.953125 -0.0234375 5.289062 0.140625 4.53125 0.140625 Z M 4.53125 -1.421875 C 4.945312 -1.421875 5.296875 -1.519531 5.578125 -1.71875 C 5.859375 -1.925781 6.070312 -2.265625 6.21875 -2.734375 C 6.363281 -3.210938 6.4375 -3.847656 6.4375 -4.640625 C 6.4375 -5.429688 6.363281 -6.0625 6.21875 -6.53125 C 6.070312 -7.007812 5.859375 -7.347656 5.578125 -7.546875 C 5.296875 -7.753906 4.945312 -7.859375 4.53125 -7.859375 C 4.113281 -7.859375 3.765625 -7.753906 3.484375 -7.546875 C 3.210938 -7.347656 3 -7.007812 2.84375 -6.53125 C 2.695312 -6.0625 2.625 -5.429688 2.625 -4.640625 C 2.625 -3.847656 2.695312 -3.210938 2.84375 -2.734375 C 3 -2.265625 3.210938 -1.925781 3.484375 -1.71875 C 3.765625 -1.519531 4.113281 -1.421875 4.53125 -1.421875 Z M 4.53125 -1.421875 "/></g></g></g><g fill="#d9d9d9" fill-opacity="1"><g transform="translate(135.344564, 306.561573)"><g/></g></g><g fill="#d9d9d9" fill-opacity="1"><g transform="translate(138.409566, 306.561573)"><g><path d="M 7.203125 -5.796875 L 7.203125 -9.28125 L 9.03125 -9.28125 L 9.03125 0 L 7.203125 0 L 7.203125 -4.234375 L 3.046875 -4.234375 L 3.046875 0 L 1.203125 0 L 1.203125 -9.28125 L 3.046875 -9.28125 L 3.046875 -5.796875 Z M 7.203125 -5.796875 "/></g></g></g><g fill="#d9d9d9" fill-opacity="1"><g transform="translate(148.645264, 306.561573)"><g><path d="M 5.875 0 L 0.375 0 L 0.375 -1.453125 L 3.765625 -5.484375 L 3.71875 -5.609375 L 0.53125 -5.609375 L 0.53125 -7.015625 L 5.828125 -7.015625 L 5.828125 -5.546875 L 2.4375 -1.53125 L 2.484375 -1.390625 L 5.875 -1.390625 Z M 5.875 0 "/></g></g></g><g fill="#d9d9d9" fill-opacity="1"><g transform="translate(164.730097, 306.561573)"><g><path d="M 0.484375 0 L 0.484375 -1.515625 L 2.734375 -1.515625 L 2.734375 -7.296875 L 2.578125 -7.328125 C 2.265625 -7.179688 1.953125 -7.0625 1.640625 -6.96875 C 1.335938 -6.882812 0.988281 -6.816406 0.59375 -6.765625 L 0.59375 -8.328125 C 1.625 -8.546875 2.457031 -8.863281 3.09375 -9.28125 L 4.546875 -9.28125 L 4.546875 -1.515625 L 6.546875 -1.515625 L 6.546875 0 Z M 0.484375 0 "/></g></g></g><g fill="#d9d9d9" fill-opacity="1"><g transform="translate(171.577165, 306.561573)"><g/></g></g><g fill="#d9d9d9" fill-opacity="1"><g transform="translate(174.642167, 306.561573)"><g><path d="M 1.015625 0 L 1.015625 -9.8125 L 2.765625 -9.8125 L 2.765625 -4.375 L 2.9375 -4.375 L 4.96875 -7 L 6.75 -7 L 6.75 -6.859375 L 4.375 -3.78125 L 7.015625 -0.15625 L 7.015625 0 L 5.15625 0 L 2.9375 -2.953125 L 2.765625 -2.953125 L 2.765625 0 Z M 1.015625 0 "/></g></g></g><g fill="#d9d9d9" fill-opacity="1"><g transform="translate(181.666917, 306.561573)"><g><path d="M 7.203125 -5.796875 L 7.203125 -9.28125 L 9.03125 -9.28125 L 9.03125 0 L 7.203125 0 L 7.203125 -4.234375 L 3.046875 -4.234375 L 3.046875 0 L 1.203125 0 L 1.203125 -9.28125 L 3.046875 -9.28125 L 3.046875 -5.796875 Z M 7.203125 -5.796875 "/></g></g></g><g fill="#d9d9d9" fill-opacity="1"><g transform="translate(191.902615, 306.561573)"><g><path d="M 5.875 0 L 0.375 0 L 0.375 -1.453125 L 3.765625 -5.484375 L 3.71875 -5.609375 L 0.53125 -5.609375 L 0.53125 -7.015625 L 5.828125 -7.015625 L 5.828125 -5.546875 L 2.4375 -1.53125 L 2.484375 -1.390625 L 5.875 -1.390625 Z M 5.875 0 "/></g></g></g><g fill="#d9d9d9" fill-opacity="1"><g transform="translate(208.205, 306.561573)"><g><path d="M 0.453125 -0.734375 C 0.453125 -1.242188 0.503906 -1.675781 0.609375 -2.03125 C 0.722656 -2.382812 0.90625 -2.703125 1.15625 -2.984375 C 1.414062 -3.273438 1.78125 -3.585938 2.25 -3.921875 L 3.484375 -4.828125 C 3.828125 -5.066406 4.09375 -5.273438 4.28125 -5.453125 C 4.46875 -5.628906 4.609375 -5.8125 4.703125 -6 C 4.796875 -6.195312 4.84375 -6.421875 4.84375 -6.671875 C 4.84375 -7.054688 4.726562 -7.347656 4.5 -7.546875 C 4.269531 -7.753906 3.925781 -7.859375 3.46875 -7.859375 C 3.03125 -7.859375 2.640625 -7.753906 2.296875 -7.546875 C 1.953125 -7.335938 1.671875 -7.050781 1.453125 -6.6875 L 1.328125 -6.65625 L 0.3125 -7.78125 C 0.644531 -8.269531 1.078125 -8.660156 1.609375 -8.953125 C 2.140625 -9.253906 2.785156 -9.40625 3.546875 -9.40625 C 4.234375 -9.40625 4.8125 -9.289062 5.28125 -9.0625 C 5.75 -8.84375 6.097656 -8.535156 6.328125 -8.140625 C 6.554688 -7.742188 6.671875 -7.285156 6.671875 -6.765625 C 6.671875 -6.328125 6.578125 -5.925781 6.390625 -5.5625 C 6.203125 -5.195312 5.945312 -4.859375 5.625 -4.546875 C 5.300781 -4.242188 4.882812 -3.914062 4.375 -3.5625 L 3.28125 -2.796875 C 2.945312 -2.554688 2.710938 -2.34375 2.578125 -2.15625 C 2.453125 -1.976562 2.390625 -1.769531 2.390625 -1.53125 L 6.578125 -1.53125 L 6.578125 0 L 0.453125 0 Z M 0.453125 -0.734375 "/></g></g></g><g fill="#d9d9d9" fill-opacity="1"><g transform="translate(215.445504, 306.561573)"><g><path d="M 1.796875 0.0625 C 1.566406 0.0625 1.363281 0.015625 1.1875 -0.078125 C 1.019531 -0.171875 0.890625 -0.296875 0.796875 -0.453125 C 0.710938 -0.617188 0.671875 -0.800781 0.671875 -1 C 0.671875 -1.207031 0.710938 -1.390625 0.796875 -1.546875 C 0.890625 -1.710938 1.019531 -1.835938 1.1875 -1.921875 C 1.363281 -2.015625 1.566406 -2.0625 1.796875 -2.0625 C 2.023438 -2.0625 2.222656 -2.015625 2.390625 -1.921875 C 2.554688 -1.835938 2.6875 -1.710938 2.78125 -1.546875 C 2.875 -1.390625 2.921875 -1.210938 2.921875 -1.015625 C 2.921875 -0.703125 2.816406 -0.441406 2.609375 -0.234375 C 2.398438 -0.0351562 2.128906 0.0625 1.796875 0.0625 Z M 1.796875 0.0625 "/></g></g></g><g fill="#d9d9d9" fill-opacity="1"><g transform="translate(218.872197, 306.561573)"><g><path d="M 6.296875 0 L 4.546875 0 L 4.546875 -2.015625 L 0.3125 -2.015625 L 0.3125 -3.5 L 3.953125 -9.28125 L 6.296875 -9.28125 L 6.296875 -3.5 L 7.734375 -3.5 L 7.734375 -2.015625 L 6.296875 -2.015625 Z M 2.203125 -3.625 L 2.25 -3.5 L 4.546875 -3.5 L 4.546875 -7.09375 L 4.40625 -7.109375 Z M 2.203125 -3.625 "/></g></g></g><g fill="#d9d9d9" fill-opacity="1"><g transform="translate(226.956681, 306.561573)"><g/></g></g><g fill="#d9d9d9" fill-opacity="1"><g transform="translate(230.021683, 306.561573)"><g><path d="M 1.015625 0 L 1.015625 -9.8125 L 2.765625 -9.8125 L 2.765625 -4.375 L 2.9375 -4.375 L 4.96875 -7 L 6.75 -7 L 6.75 -6.859375 L 4.375 -3.78125 L 7.015625 -0.15625 L 7.015625 0 L 5.15625 0 L 2.9375 -2.953125 L 2.765625 -2.953125 L 2.765625 0 Z M 1.015625 0 "/></g></g></g><g fill="#d9d9d9" fill-opacity="1"><g transform="translate(237.046432, 306.561573)"><g><path d="M 7.203125 -5.796875 L 7.203125 -9.28125 L 9.03125 -9.28125 L 9.03125 0 L 7.203125 0 L 7.203125 -4.234375 L 3.046875 -4.234375 L 3.046875 0 L 1.203125 0 L 1.203125 -9.28125 L 3.046875 -9.28125 L 3.046875 -5.796875 Z M 7.203125 -5.796875 "/></g></g></g><g fill="#d9d9d9" fill-opacity="1"><g transform="translate(247.28213, 306.561573)"><g><path d="M 5.875 0 L 0.375 0 L 0.375 -1.453125 L 3.765625 -5.484375 L 3.71875 -5.609375 L 0.53125 -5.609375 L 0.53125 -7.015625 L 5.828125 -7.015625 L 5.828125 -5.546875 L 2.4375 -1.53125 L 2.484375 -1.390625 L 5.875 -1.390625 Z M 5.875 0 "/></g></g></g><g fill="#d9d9d9" fill-opacity="1"><g transform="translate(262.79243, 306.561573)"><g><path d="M 4.4375 0.140625 C 3.738281 0.140625 3.113281 -0.0195312 2.5625 -0.34375 C 2.019531 -0.664062 1.585938 -1.175781 1.265625 -1.875 C 0.941406 -2.582031 0.78125 -3.472656 0.78125 -4.546875 C 0.78125 -5.648438 0.945312 -6.5625 1.28125 -7.28125 C 1.625 -8.007812 2.085938 -8.546875 2.671875 -8.890625 C 3.265625 -9.234375 3.9375 -9.40625 4.6875 -9.40625 C 5.320312 -9.40625 5.863281 -9.316406 6.3125 -9.140625 C 6.769531 -8.960938 7.125 -8.691406 7.375 -8.328125 L 6.484375 -7.171875 L 6.328125 -7.171875 C 5.941406 -7.640625 5.394531 -7.875 4.6875 -7.875 C 3.363281 -7.875 2.691406 -6.90625 2.671875 -4.96875 L 2.796875 -4.921875 C 3.015625 -5.316406 3.300781 -5.617188 3.65625 -5.828125 C 4.007812 -6.046875 4.453125 -6.15625 4.984375 -6.15625 C 5.566406 -6.15625 6.066406 -6.03125 6.484375 -5.78125 C 6.898438 -5.539062 7.21875 -5.191406 7.4375 -4.734375 C 7.664062 -4.285156 7.78125 -3.75 7.78125 -3.125 C 7.78125 -2.445312 7.644531 -1.863281 7.375 -1.375 C 7.101562 -0.882812 6.71875 -0.507812 6.21875 -0.25 C 5.71875 0.0078125 5.125 0.140625 4.4375 0.140625 Z M 4.40625 -1.4375 C 4.875 -1.4375 5.242188 -1.578125 5.515625 -1.859375 C 5.785156 -2.140625 5.921875 -2.535156 5.921875 -3.046875 C 5.921875 -3.546875 5.785156 -3.9375 5.515625 -4.21875 C 5.242188 -4.5 4.875 -4.640625 4.40625 -4.640625 C 4.082031 -4.640625 3.800781 -4.570312 3.5625 -4.4375 C 3.332031 -4.3125 3.15625 -4.128906 3.03125 -3.890625 C 2.90625 -3.648438 2.84375 -3.367188 2.84375 -3.046875 C 2.84375 -2.546875 2.976562 -2.148438 3.25 -1.859375 C 3.53125 -1.578125 3.914062 -1.4375 4.40625 -1.4375 Z M 4.40625 -1.4375 "/></g></g></g><g fill="#d9d9d9" fill-opacity="1"><g transform="translate(271.219584, 306.561573)"><g/></g></g><g fill="#d9d9d9" fill-opacity="1"><g transform="translate(274.284586, 306.561573)"><g><path d="M 1.015625 0 L 1.015625 -9.8125 L 2.765625 -9.8125 L 2.765625 -4.375 L 2.9375 -4.375 L 4.96875 -7 L 6.75 -7 L 6.75 -6.859375 L 4.375 -3.78125 L 7.015625 -0.15625 L 7.015625 0 L 5.15625 0 L 2.9375 -2.953125 L 2.765625 -2.953125 L 2.765625 0 Z M 1.015625 0 "/></g></g></g><g fill="#d9d9d9" fill-opacity="1"><g transform="translate(281.309335, 306.561573)"><g><path d="M 7.203125 -5.796875 L 7.203125 -9.28125 L 9.03125 -9.28125 L 9.03125 0 L 7.203125 0 L 7.203125 -4.234375 L 3.046875 -4.234375 L 3.046875 0 L 1.203125 0 L 1.203125 -9.28125 L 3.046875 -9.28125 L 3.046875 -5.796875 Z M 7.203125 -5.796875 "/></g></g></g><g fill="#d9d9d9" fill-opacity="1"><g transform="translate(291.545033, 306.561573)"><g><path d="M 5.875 0 L 0.375 0 L 0.375 -1.453125 L 3.765625 -5.484375 L 3.71875 -5.609375 L 0.53125 -5.609375 L 0.53125 -7.015625 L 5.828125 -7.015625 L 5.828125 -5.546875 L 2.4375 -1.53125 L 2.484375 -1.390625 L 5.875 -1.390625 Z M 5.875 0 "/></g></g></g><g fill="#d9d9d9" fill-opacity="1"><g transform="translate(309.092358, 306.561573)"><g><path d="M 0.484375 0 L 0.484375 -1.515625 L 2.734375 -1.515625 L 2.734375 -7.296875 L 2.578125 -7.328125 C 2.265625 -7.179688 1.953125 -7.0625 1.640625 -6.96875 C 1.335938 -6.882812 0.988281 -6.816406 0.59375 -6.765625 L 0.59375 -8.328125 C 1.625 -8.546875 2.457031 -8.863281 3.09375 -9.28125 L 4.546875 -9.28125 L 4.546875 -1.515625 L 6.546875 -1.515625 L 6.546875 0 Z M 0.484375 0 "/></g></g></g><g fill="#d9d9d9" fill-opacity="1"><g transform="translate(315.939426, 306.561573)"><g><path d="M 3.859375 0.140625 C 2.929688 0.140625 2.195312 -0.0507812 1.65625 -0.4375 C 1.113281 -0.832031 0.757812 -1.378906 0.59375 -2.078125 L 1.984375 -2.703125 L 2.140625 -2.671875 C 2.273438 -2.265625 2.472656 -1.957031 2.734375 -1.75 C 3.003906 -1.539062 3.375 -1.4375 3.84375 -1.4375 C 4.332031 -1.4375 4.707031 -1.570312 4.96875 -1.84375 C 5.226562 -2.125 5.359375 -2.535156 5.359375 -3.078125 C 5.359375 -3.617188 5.226562 -4.03125 4.96875 -4.3125 C 4.707031 -4.59375 4.351562 -4.734375 3.90625 -4.734375 C 3.5625 -4.734375 3.269531 -4.65625 3.03125 -4.5 C 2.800781 -4.351562 2.609375 -4.132812 2.453125 -3.84375 L 0.9375 -3.953125 L 1.125 -9.28125 L 6.65625 -9.28125 L 6.65625 -7.734375 L 2.671875 -7.734375 L 2.578125 -5.375 L 2.71875 -5.34375 C 2.9375 -5.625 3.191406 -5.835938 3.484375 -5.984375 C 3.785156 -6.128906 4.148438 -6.203125 4.578125 -6.203125 C 5.109375 -6.203125 5.570312 -6.082031 5.96875 -5.84375 C 6.363281 -5.613281 6.664062 -5.265625 6.875 -4.796875 C 7.09375 -4.335938 7.203125 -3.773438 7.203125 -3.109375 C 7.203125 -2.429688 7.070312 -1.847656 6.8125 -1.359375 C 6.550781 -0.878906 6.171875 -0.507812 5.671875 -0.25 C 5.171875 0.0078125 4.566406 0.140625 3.859375 0.140625 Z M 3.859375 0.140625 "/></g></g></g><g fill="#d9d9d9" fill-opacity="1"><g transform="translate(323.757388, 306.561573)"><g/></g></g><g fill="#d9d9d9" fill-opacity="1"><g transform="translate(326.82239, 306.561573)"><g><path d="M 1.015625 0 L 1.015625 -9.8125 L 2.765625 -9.8125 L 2.765625 -4.375 L 2.9375 -4.375 L 4.96875 -7 L 6.75 -7 L 6.75 -6.859375 L 4.375 -3.78125 L 7.015625 -0.15625 L 7.015625 0 L 5.15625 0 L 2.9375 -2.953125 L 2.765625 -2.953125 L 2.765625 0 Z M 1.015625 0 "/></g></g></g><g fill="#d9d9d9" fill-opacity="1"><g transform="translate(333.84714, 306.561573)"><g><path d="M 7.203125 -5.796875 L 7.203125 -9.28125 L 9.03125 -9.28125 L 9.03125 0 L 7.203125 0 L 7.203125 -4.234375 L 3.046875 -4.234375 L 3.046875 0 L 1.203125 0 L 1.203125 -9.28125 L 3.046875 -9.28125 L 3.046875 -5.796875 Z M 7.203125 -5.796875 "/></g></g></g><g fill="#d9d9d9" fill-opacity="1"><g transform="translate(344.082838, 306.561573)"><g><path d="M 5.875 0 L 0.375 0 L 0.375 -1.453125 L 3.765625 -5.484375 L 3.71875 -5.609375 L 0.53125 -5.609375 L 0.53125 -7.015625 L 5.828125 -7.015625 L 5.828125 -5.546875 L 2.4375 -1.53125 L 2.484375 -1.390625 L 5.875 -1.390625 Z M 5.875 0 "/></g></g></g></svg>