<svg xmlns="http://www.w3.org/2000/svg" xmlns:xlink="http://www.w3.org/1999/xlink" width="500" zoomAndPan="magnify" viewBox="0 0 375 374.999991" height="500" preserveAspectRatio="xMidYMid meet" version="1.0"><defs><filter x="0%" y="0%" width="100%" height="100%" id="32366f5d5a"><feColorMatrix values="0 0 0 0 1 0 0 0 0 1 0 0 0 0 1 0 0 0 1 0" color-interpolation-filters="sRGB"/></filter><g/><mask id="5243f22a0a"><g filter="url(#32366f5d5a)"><rect x="-37.5" width="450" fill="#000000" y="-37.499999" height="449.999989" fill-opacity="0.32"/></g></mask><clipPath id="324145d793"><path d="M 11.835938 0.859375 L 20.5 0.859375 L 20.5 198.648438 L 11.835938 198.648438 Z M 11.835938 0.859375 " clip-rule="nonzero"/></clipPath><clipPath id="db4aa60774"><path d="M 16.167969 0.859375 C 18.558594 0.859375 20.5 2.796875 20.5 5.191406 L 20.5 194.304688 C 20.5 196.699219 18.558594 198.636719 16.167969 198.636719 C 13.773438 198.636719 11.835938 196.699219 11.835938 194.304688 L 11.835938 5.191406 C 11.835938 2.796875 13.773438 0.859375 16.167969 0.859375 Z M 16.167969 0.859375 " clip-rule="nonzero"/></clipPath><clipPath id="8867b611d5"><path d="M 0.835938 0.859375 L 9.5 0.859375 L 9.5 198.640625 L 0.835938 198.640625 Z M 0.835938 0.859375 " clip-rule="nonzero"/></clipPath><clipPath id="56b3a72a5f"><path d="M 5.167969 0.859375 C 7.558594 0.859375 9.5 2.796875 9.5 5.191406 L 9.5 194.304688 C 9.5 196.699219 7.558594 198.636719 5.167969 198.636719 C 2.773438 198.636719 0.835938 196.699219 0.835938 194.304688 L 0.835938 5.191406 C 0.835938 2.796875 2.773438 0.859375 5.167969 0.859375 Z M 5.167969 0.859375 " clip-rule="nonzero"/></clipPath><clipPath id="0e297da495"><rect x="0" width="10" y="0" height="199"/></clipPath><clipPath id="969c83bc9a"><path d="M 0.527344 13.839844 L 31.960938 13.839844 L 31.960938 16.839844 L 0.527344 16.839844 Z M 0.527344 13.839844 " clip-rule="nonzero"/></clipPath><clipPath id="21125656ef"><path d="M 0.527344 32.328125 L 31.960938 32.328125 L 31.960938 35.328125 L 0.527344 35.328125 Z M 0.527344 32.328125 " clip-rule="nonzero"/></clipPath><clipPath id="12a7f0b685"><path d="M 0.527344 50.820312 L 31.960938 50.820312 L 31.960938 53.820312 L 0.527344 53.820312 Z M 0.527344 50.820312 " clip-rule="nonzero"/></clipPath><clipPath id="30d46be436"><path d="M 0.527344 69.308594 L 31.960938 69.308594 L 31.960938 72.308594 L 0.527344 72.308594 Z M 0.527344 69.308594 " clip-rule="nonzero"/></clipPath><clipPath id="b0ee22ba1c"><path d="M 0.527344 87.796875 L 31.960938 87.796875 L 31.960938 90.796875 L 0.527344 90.796875 Z M 0.527344 87.796875 " clip-rule="nonzero"/></clipPath><clipPath id="0f899636c1"><path d="M 0.527344 106.289062 L 31.960938 106.289062 L 31.960938 109.289062 L 0.527344 109.289062 Z M 0.527344 106.289062 " clip-rule="nonzero"/></clipPath><clipPath id="6fa01c863d"><path d="M 0.527344 124.777344 L 31.960938 124.777344 L 31.960938 127.777344 L 0.527344 127.777344 Z M 0.527344 124.777344 " clip-rule="nonzero"/></clipPath><clipPath id="eba6913465"><path d="M 0.527344 143.269531 L 31.960938 143.269531 L 31.960938 146.269531 L 0.527344 146.269531 Z M 0.527344 143.269531 " clip-rule="nonzero"/></clipPath><clipPath id="1a11b1e37a"><path d="M 0.527344 161.757812 L 31.960938 161.757812 L 31.960938 164.757812 L 0.527344 164.757812 Z M 0.527344 161.757812 " clip-rule="nonzero"/></clipPath><clipPath id="50de852e7d"><path d="M 0.527344 180.25 L 31.960938 180.25 L 31.960938 183.25 L 0.527344 183.25 Z M 0.527344 180.25 " clip-rule="nonzero"/></clipPath><clipPath id="5b7ef887a3"><rect x="0" width="32" y="0" height="199"/></clipPath><mask id="1a7d14b68b"><g filter="url(#32366f5d5a)"><rect x="-37.5" width="450" fill="#000000" y="-37.499999" height="449.999989" fill-opacity="0.32"/></g></mask><clipPath id="3d9b2e51c7"><path d="M 11.683594 0.859375 L 20.351562 0.859375 L 20.351562 198.648438 L 11.683594 198.648438 Z M 11.683594 0.859375 " clip-rule="nonzero"/></clipPath><clipPath id="4d9f8e6b96"><path d="M 16.019531 0.859375 C 18.410156 0.859375 20.351562 2.796875 20.351562 5.191406 L 20.351562 194.304688 C 20.351562 196.699219 18.410156 198.636719 16.019531 198.636719 C 13.625 198.636719 11.683594 196.699219 11.683594 194.304688 L 11.683594 5.191406 C 11.683594 2.796875 13.625 0.859375 16.019531 0.859375 Z M 16.019531 0.859375 " clip-rule="nonzero"/></clipPath><clipPath id="8d7ffcbed4"><path d="M 0.683594 0.859375 L 9.351562 0.859375 L 9.351562 198.640625 L 0.683594 198.640625 Z M 0.683594 0.859375 " clip-rule="nonzero"/></clipPath><clipPath id="dbd78656ae"><path d="M 5.019531 0.859375 C 7.410156 0.859375 9.351562 2.796875 9.351562 5.191406 L 9.351562 194.304688 C 9.351562 196.699219 7.410156 198.636719 5.019531 198.636719 C 2.625 198.636719 0.683594 196.699219 0.683594 194.304688 L 0.683594 5.191406 C 0.683594 2.796875 2.625 0.859375 5.019531 0.859375 Z M 5.019531 0.859375 " clip-rule="nonzero"/></clipPath><clipPath id="523e79d486"><rect x="0" width="10" y="0" height="199"/></clipPath><clipPath id="17075ce346"><path d="M 0.398438 13.839844 L 31.839844 13.839844 L 31.839844 16.839844 L 0.398438 16.839844 Z M 0.398438 13.839844 " clip-rule="nonzero"/></clipPath><clipPath id="bb614d7e0e"><path d="M 0.398438 32.328125 L 31.839844 32.328125 L 31.839844 35.328125 L 0.398438 35.328125 Z M 0.398438 32.328125 " clip-rule="nonzero"/></clipPath><clipPath id="236e5ee854"><path d="M 0.398438 50.820312 L 31.839844 50.820312 L 31.839844 53.820312 L 0.398438 53.820312 Z M 0.398438 50.820312 " clip-rule="nonzero"/></clipPath><clipPath id="9de494b551"><path d="M 0.398438 69.308594 L 31.839844 69.308594 L 31.839844 72.308594 L 0.398438 72.308594 Z M 0.398438 69.308594 " clip-rule="nonzero"/></clipPath><clipPath id="bb07cbb36b"><path d="M 0.398438 87.796875 L 31.839844 87.796875 L 31.839844 90.796875 L 0.398438 90.796875 Z M 0.398438 87.796875 " clip-rule="nonzero"/></clipPath><clipPath id="6aba535313"><path d="M 0.398438 106.289062 L 31.839844 106.289062 L 31.839844 109.289062 L 0.398438 109.289062 Z M 0.398438 106.289062 " clip-rule="nonzero"/></clipPath><clipPath id="b0c258f1d5"><path d="M 0.398438 124.777344 L 31.839844 124.777344 L 31.839844 127.777344 L 0.398438 127.777344 Z M 0.398438 124.777344 " clip-rule="nonzero"/></clipPath><clipPath id="a417cf6a09"><path d="M 0.398438 143.269531 L 31.839844 143.269531 L 31.839844 146.269531 L 0.398438 146.269531 Z M 0.398438 143.269531 " clip-rule="nonzero"/></clipPath><clipPath id="84d4a3d78a"><path d="M 0.398438 161.757812 L 31.839844 161.757812 L 31.839844 164.757812 L 0.398438 164.757812 Z M 0.398438 161.757812 " clip-rule="nonzero"/></clipPath><clipPath id="14e57b554e"><path d="M 0.398438 180.25 L 31.839844 180.25 L 31.839844 183.25 L 0.398438 183.25 Z M 0.398438 180.25 " clip-rule="nonzero"/></clipPath><clipPath id="1cc6a64147"><rect x="0" width="32" y="0" height="199"/></clipPath><mask id="f966bacf2f"><g filter="url(#32366f5d5a)"><rect x="-37.5" width="450" fill="#000000" y="-37.499999" height="449.999989" fill-opacity="0.32"/></g></mask><clipPath id="fde5ce78b8"><path d="M 11.535156 0.859375 L 20.199219 0.859375 L 20.199219 198.648438 L 11.535156 198.648438 Z M 11.535156 0.859375 " clip-rule="nonzero"/></clipPath><clipPath id="f84070987d"><path d="M 15.867188 0.859375 C 18.261719 0.859375 20.199219 2.796875 20.199219 5.191406 L 20.199219 194.304688 C 20.199219 196.699219 18.261719 198.636719 15.867188 198.636719 C 13.476562 198.636719 11.535156 196.699219 11.535156 194.304688 L 11.535156 5.191406 C 11.535156 2.796875 13.476562 0.859375 15.867188 0.859375 Z M 15.867188 0.859375 " clip-rule="nonzero"/></clipPath><clipPath id="732a27768d"><path d="M 0.535156 0.859375 L 9.199219 0.859375 L 9.199219 198.640625 L 0.535156 198.640625 Z M 0.535156 0.859375 " clip-rule="nonzero"/></clipPath><clipPath id="daf8817391"><path d="M 4.867188 0.859375 C 7.261719 0.859375 9.199219 2.796875 9.199219 5.191406 L 9.199219 194.304688 C 9.199219 196.699219 7.261719 198.636719 4.867188 198.636719 C 2.476562 198.636719 0.535156 196.699219 0.535156 194.304688 L 0.535156 5.191406 C 0.535156 2.796875 2.476562 0.859375 4.867188 0.859375 Z M 4.867188 0.859375 " clip-rule="nonzero"/></clipPath><clipPath id="90a6a20fef"><rect x="0" width="10" y="0" height="199"/></clipPath><clipPath id="faa18854c4"><path d="M 0.226562 13.839844 L 31.480469 13.839844 L 31.480469 16.839844 L 0.226562 16.839844 Z M 0.226562 13.839844 " clip-rule="nonzero"/></clipPath><clipPath id="6b719b732b"><path d="M 0.226562 32.328125 L 31.480469 32.328125 L 31.480469 35.328125 L 0.226562 35.328125 Z M 0.226562 32.328125 " clip-rule="nonzero"/></clipPath><clipPath id="4291945ec2"><path d="M 0.226562 50.820312 L 31.480469 50.820312 L 31.480469 53.820312 L 0.226562 53.820312 Z M 0.226562 50.820312 " clip-rule="nonzero"/></clipPath><clipPath id="1409626e90"><path d="M 0.226562 69.308594 L 31.480469 69.308594 L 31.480469 72.308594 L 0.226562 72.308594 Z M 0.226562 69.308594 " clip-rule="nonzero"/></clipPath><clipPath id="adea489b04"><path d="M 0.226562 87.796875 L 31.480469 87.796875 L 31.480469 90.796875 L 0.226562 90.796875 Z M 0.226562 87.796875 " clip-rule="nonzero"/></clipPath><clipPath id="c5896fde65"><path d="M 0.226562 106.289062 L 31.480469 106.289062 L 31.480469 109.289062 L 0.226562 109.289062 Z M 0.226562 106.289062 " clip-rule="nonzero"/></clipPath><clipPath id="80d761f11b"><path d="M 0.226562 124.777344 L 31.480469 124.777344 L 31.480469 127.777344 L 0.226562 127.777344 Z M 0.226562 124.777344 " clip-rule="nonzero"/></clipPath><clipPath id="ce754a9839"><path d="M 0.226562 143.269531 L 31.480469 143.269531 L 31.480469 146.269531 L 0.226562 146.269531 Z M 0.226562 143.269531 " clip-rule="nonzero"/></clipPath><clipPath id="218871277e"><path d="M 0.226562 161.757812 L 31.480469 161.757812 L 31.480469 164.757812 L 0.226562 164.757812 Z M 0.226562 161.757812 " clip-rule="nonzero"/></clipPath><clipPath id="3730e48a83"><path d="M 0.226562 180.25 L 31.480469 180.25 L 31.480469 183.25 L 0.226562 183.25 Z M 0.226562 180.25 " clip-rule="nonzero"/></clipPath><clipPath id="5fdf32f743"><rect x="0" width="32" y="0" height="199"/></clipPath><mask id="8b0ecaa7e7"><g filter="url(#32366f5d5a)"><rect x="-37.5" width="450" fill="#000000" y="-37.499999" height="449.999989" fill-opacity="0.32"/></g></mask><clipPath id="05e9a7d620"><path d="M 11.960938 0.859375 L 20.625 0.859375 L 20.625 198.648438 L 11.960938 198.648438 Z M 11.960938 0.859375 " clip-rule="nonzero"/></clipPath><clipPath id="1774743c78"><path d="M 16.292969 0.859375 C 18.683594 0.859375 20.625 2.796875 20.625 5.191406 L 20.625 194.304688 C 20.625 196.699219 18.683594 198.636719 16.292969 198.636719 C 13.898438 198.636719 11.960938 196.699219 11.960938 194.304688 L 11.960938 5.191406 C 11.960938 2.796875 13.898438 0.859375 16.292969 0.859375 Z M 16.292969 0.859375 " clip-rule="nonzero"/></clipPath><clipPath id="61d8ced730"><path d="M 0.960938 0.859375 L 9.625 0.859375 L 9.625 198.640625 L 0.960938 198.640625 Z M 0.960938 0.859375 " clip-rule="nonzero"/></clipPath><clipPath id="52551c7007"><path d="M 5.292969 0.859375 C 7.683594 0.859375 9.625 2.796875 9.625 5.191406 L 9.625 194.304688 C 9.625 196.699219 7.683594 198.636719 5.292969 198.636719 C 2.898438 198.636719 0.960938 196.699219 0.960938 194.304688 L 0.960938 5.191406 C 0.960938 2.796875 2.898438 0.859375 5.292969 0.859375 Z M 5.292969 0.859375 " clip-rule="nonzero"/></clipPath><clipPath id="46c0159986"><rect x="0" width="10" y="0" height="199"/></clipPath><clipPath id="d1e5787627"><path d="M 0.652344 13.839844 L 31.921875 13.839844 L 31.921875 16.839844 L 0.652344 16.839844 Z M 0.652344 13.839844 " clip-rule="nonzero"/></clipPath><clipPath id="b1081fd265"><path d="M 0.652344 32.328125 L 31.921875 32.328125 L 31.921875 35.328125 L 0.652344 35.328125 Z M 0.652344 32.328125 " clip-rule="nonzero"/></clipPath><clipPath id="84747f36c4"><path d="M 0.652344 50.820312 L 31.921875 50.820312 L 31.921875 53.820312 L 0.652344 53.820312 Z M 0.652344 50.820312 " clip-rule="nonzero"/></clipPath><clipPath id="5ee82f683e"><path d="M 0.652344 69.308594 L 31.921875 69.308594 L 31.921875 72.308594 L 0.652344 72.308594 Z M 0.652344 69.308594 " clip-rule="nonzero"/></clipPath><clipPath id="e8bc9193b9"><path d="M 0.652344 87.796875 L 31.921875 87.796875 L 31.921875 90.796875 L 0.652344 90.796875 Z M 0.652344 87.796875 " clip-rule="nonzero"/></clipPath><clipPath id="43828d2feb"><path d="M 0.652344 106.289062 L 31.921875 106.289062 L 31.921875 109.289062 L 0.652344 109.289062 Z M 0.652344 106.289062 " clip-rule="nonzero"/></clipPath><clipPath id="1aea35c9d1"><path d="M 0.652344 124.777344 L 31.921875 124.777344 L 31.921875 127.777344 L 0.652344 127.777344 Z M 0.652344 124.777344 " clip-rule="nonzero"/></clipPath><clipPath id="4d8f69b054"><path d="M 0.652344 143.269531 L 31.921875 143.269531 L 31.921875 146.269531 L 0.652344 146.269531 Z M 0.652344 143.269531 " clip-rule="nonzero"/></clipPath><clipPath id="d5f84edfe9"><path d="M 0.652344 161.757812 L 31.921875 161.757812 L 31.921875 164.757812 L 0.652344 164.757812 Z M 0.652344 161.757812 " clip-rule="nonzero"/></clipPath><clipPath id="df718b90bc"><path d="M 0.652344 180.25 L 31.921875 180.25 L 31.921875 183.25 L 0.652344 183.25 Z M 0.652344 180.25 " clip-rule="nonzero"/></clipPath><clipPath id="1d75f9b2ac"><rect x="0" width="32" y="0" height="199"/></clipPath><mask id="cf4bf2eaf8"><g filter="url(#32366f5d5a)"><rect x="-37.5" width="450" fill="#000000" y="-37.499999" height="449.999989" fill-opacity="0.32"/></g></mask><clipPath id="867b60a92d"><path d="M 12.386719 0.859375 L 21.050781 0.859375 L 21.050781 198.648438 L 12.386719 198.648438 Z M 12.386719 0.859375 " clip-rule="nonzero"/></clipPath><clipPath id="fe3842ea67"><path d="M 16.71875 0.859375 C 19.109375 0.859375 21.050781 2.796875 21.050781 5.191406 L 21.050781 194.304688 C 21.050781 196.699219 19.109375 198.636719 16.71875 198.636719 C 14.324219 198.636719 12.386719 196.699219 12.386719 194.304688 L 12.386719 5.191406 C 12.386719 2.796875 14.324219 0.859375 16.71875 0.859375 Z M 16.71875 0.859375 " clip-rule="nonzero"/></clipPath><clipPath id="4bee927389"><path d="M 0.386719 0.859375 L 9.050781 0.859375 L 9.050781 198.640625 L 0.386719 198.640625 Z M 0.386719 0.859375 " clip-rule="nonzero"/></clipPath><clipPath id="0653b1f392"><path d="M 4.71875 0.859375 C 7.109375 0.859375 9.050781 2.796875 9.050781 5.191406 L 9.050781 194.304688 C 9.050781 196.699219 7.109375 198.636719 4.71875 198.636719 C 2.324219 198.636719 0.386719 196.699219 0.386719 194.304688 L 0.386719 5.191406 C 0.386719 2.796875 2.324219 0.859375 4.71875 0.859375 Z M 4.71875 0.859375 " clip-rule="nonzero"/></clipPath><clipPath id="08678ddd7a"><rect x="0" width="10" y="0" height="199"/></clipPath><clipPath id="4bd15eb371"><path d="M 1.074219 13.839844 L 32.359375 13.839844 L 32.359375 16.839844 L 1.074219 16.839844 Z M 1.074219 13.839844 " clip-rule="nonzero"/></clipPath><clipPath id="a97431a5b7"><path d="M 1.074219 32.328125 L 32.359375 32.328125 L 32.359375 35.328125 L 1.074219 35.328125 Z M 1.074219 32.328125 " clip-rule="nonzero"/></clipPath><clipPath id="ee545a8718"><path d="M 1.074219 50.820312 L 32.359375 50.820312 L 32.359375 53.820312 L 1.074219 53.820312 Z M 1.074219 50.820312 " clip-rule="nonzero"/></clipPath><clipPath id="ef4a596104"><path d="M 1.074219 69.308594 L 32.359375 69.308594 L 32.359375 72.308594 L 1.074219 72.308594 Z M 1.074219 69.308594 " clip-rule="nonzero"/></clipPath><clipPath id="a51527b498"><path d="M 1.074219 87.796875 L 32.359375 87.796875 L 32.359375 90.796875 L 1.074219 90.796875 Z M 1.074219 87.796875 " clip-rule="nonzero"/></clipPath><clipPath id="dc0b97c836"><path d="M 1.074219 106.289062 L 32.359375 106.289062 L 32.359375 109.289062 L 1.074219 109.289062 Z M 1.074219 106.289062 " clip-rule="nonzero"/></clipPath><clipPath id="b60dc9810e"><path d="M 1.074219 124.777344 L 32.359375 124.777344 L 32.359375 127.777344 L 1.074219 127.777344 Z M 1.074219 124.777344 " clip-rule="nonzero"/></clipPath><clipPath id="e91a5ed092"><path d="M 1.074219 143.269531 L 32.359375 143.269531 L 32.359375 146.269531 L 1.074219 146.269531 Z M 1.074219 143.269531 " clip-rule="nonzero"/></clipPath><clipPath id="3c5f9cd5e5"><path d="M 1.074219 161.757812 L 32.359375 161.757812 L 32.359375 164.757812 L 1.074219 164.757812 Z M 1.074219 161.757812 " clip-rule="nonzero"/></clipPath><clipPath id="b4241815af"><path d="M 1.074219 180.25 L 32.359375 180.25 L 32.359375 183.25 L 1.074219 183.25 Z M 1.074219 180.25 " clip-rule="nonzero"/></clipPath><clipPath id="3f523a4643"><rect x="0" width="33" y="0" height="199"/></clipPath><mask id="e31f6f76b6"><g filter="url(#32366f5d5a)"><rect x="-37.5" width="450" fill="#000000" y="-37.499999" height="449.999989" fill-opacity="0.32"/></g></mask><clipPath id="bfec84b517"><path d="M 12.261719 0.859375 L 20.925781 0.859375 L 20.925781 198.648438 L 12.261719 198.648438 Z M 12.261719 0.859375 " clip-rule="nonzero"/></clipPath><clipPath id="aeacc3f3af"><path d="M 16.59375 0.859375 C 18.984375 0.859375 20.925781 2.796875 20.925781 5.191406 L 20.925781 194.304688 C 20.925781 196.699219 18.984375 198.636719 16.59375 198.636719 C 14.199219 198.636719 12.261719 196.699219 12.261719 194.304688 L 12.261719 5.191406 C 12.261719 2.796875 14.199219 0.859375 16.59375 0.859375 Z M 16.59375 0.859375 " clip-rule="nonzero"/></clipPath><clipPath id="ba1bc3756b"><path d="M 0.261719 0.859375 L 8.925781 0.859375 L 8.925781 198.640625 L 0.261719 198.640625 Z M 0.261719 0.859375 " clip-rule="nonzero"/></clipPath><clipPath id="65f51bc26a"><path d="M 4.59375 0.859375 C 6.984375 0.859375 8.925781 2.796875 8.925781 5.191406 L 8.925781 194.304688 C 8.925781 196.699219 6.984375 198.636719 4.59375 198.636719 C 2.199219 198.636719 0.261719 196.699219 0.261719 194.304688 L 0.261719 5.191406 C 0.261719 2.796875 2.199219 0.859375 4.59375 0.859375 Z M 4.59375 0.859375 " clip-rule="nonzero"/></clipPath><clipPath id="1c4bcecb80"><rect x="0" width="9" y="0" height="199"/></clipPath><clipPath id="cfbedcc101"><path d="M 1 13.839844 L 32.398438 13.839844 L 32.398438 16.839844 L 1 16.839844 Z M 1 13.839844 " clip-rule="nonzero"/></clipPath><clipPath id="56a8c309e2"><path d="M 1 32.328125 L 32.398438 32.328125 L 32.398438 35.328125 L 1 35.328125 Z M 1 32.328125 " clip-rule="nonzero"/></clipPath><clipPath id="cb6928d6d2"><path d="M 1 50.820312 L 32.398438 50.820312 L 32.398438 53.820312 L 1 53.820312 Z M 1 50.820312 " clip-rule="nonzero"/></clipPath><clipPath id="a2a6d8ca43"><path d="M 1 69.308594 L 32.398438 69.308594 L 32.398438 72.308594 L 1 72.308594 Z M 1 69.308594 " clip-rule="nonzero"/></clipPath><clipPath id="c604fe357d"><path d="M 1 87.796875 L 32.398438 87.796875 L 32.398438 90.796875 L 1 90.796875 Z M 1 87.796875 " clip-rule="nonzero"/></clipPath><clipPath id="110bd274e8"><path d="M 1 106.289062 L 32.398438 106.289062 L 32.398438 109.289062 L 1 109.289062 Z M 1 106.289062 " clip-rule="nonzero"/></clipPath><clipPath id="3aa501178a"><path d="M 1 124.777344 L 32.398438 124.777344 L 32.398438 127.777344 L 1 127.777344 Z M 1 124.777344 " clip-rule="nonzero"/></clipPath><clipPath id="15ec5c9c37"><path d="M 1 143.269531 L 32.398438 143.269531 L 32.398438 146.269531 L 1 146.269531 Z M 1 143.269531 " clip-rule="nonzero"/></clipPath><clipPath id="f14f900608"><path d="M 1 161.757812 L 32.398438 161.757812 L 32.398438 164.757812 L 1 164.757812 Z M 1 161.757812 " clip-rule="nonzero"/></clipPath><clipPath id="7333d97ba9"><path d="M 1 180.25 L 32.398438 180.25 L 32.398438 183.25 L 1 183.25 Z M 1 180.25 " clip-rule="nonzero"/></clipPath><clipPath id="cac44891f6"><rect x="0" width="33" y="0" height="199"/></clipPath><mask id="bfd34a8a77"><g filter="url(#32366f5d5a)"><rect x="-37.5" width="450" fill="#000000" y="-37.499999" height="449.999989" fill-opacity="0.32"/></g></mask><clipPath id="965a09aaad"><path d="M 12.109375 0.859375 L 20.773438 0.859375 L 20.773438 198.648438 L 12.109375 198.648438 Z M 12.109375 0.859375 " clip-rule="nonzero"/></clipPath><clipPath id="5ccbecb79a"><path d="M 16.441406 0.859375 C 18.835938 0.859375 20.773438 2.796875 20.773438 5.191406 L 20.773438 194.304688 C 20.773438 196.699219 18.835938 198.636719 16.441406 198.636719 C 14.050781 198.636719 12.109375 196.699219 12.109375 194.304688 L 12.109375 5.191406 C 12.109375 2.796875 14.050781 0.859375 16.441406 0.859375 Z M 16.441406 0.859375 " clip-rule="nonzero"/></clipPath><clipPath id="d5a0d691a0"><path d="M 0.109375 0.859375 L 8.773438 0.859375 L 8.773438 198.640625 L 0.109375 198.640625 Z M 0.109375 0.859375 " clip-rule="nonzero"/></clipPath><clipPath id="a5b4ff816f"><path d="M 4.441406 0.859375 C 6.835938 0.859375 8.773438 2.796875 8.773438 5.191406 L 8.773438 194.304688 C 8.773438 196.699219 6.835938 198.636719 4.441406 198.636719 C 2.050781 198.636719 0.109375 196.699219 0.109375 194.304688 L 0.109375 5.191406 C 0.109375 2.796875 2.050781 0.859375 4.441406 0.859375 Z M 4.441406 0.859375 " clip-rule="nonzero"/></clipPath><clipPath id="6621bb1e60"><rect x="0" width="9" y="0" height="199"/></clipPath><clipPath id="bd821c33e2"><path d="M 0.839844 13.839844 L 32.039062 13.839844 L 32.039062 16.839844 L 0.839844 16.839844 Z M 0.839844 13.839844 " clip-rule="nonzero"/></clipPath><clipPath id="2ddd9b75ba"><path d="M 0.839844 32.328125 L 32.039062 32.328125 L 32.039062 35.328125 L 0.839844 35.328125 Z M 0.839844 32.328125 " clip-rule="nonzero"/></clipPath><clipPath id="d3d4febb43"><path d="M 0.839844 50.820312 L 32.039062 50.820312 L 32.039062 53.820312 L 0.839844 53.820312 Z M 0.839844 50.820312 " clip-rule="nonzero"/></clipPath><clipPath id="8b7627b5cb"><path d="M 0.839844 69.308594 L 32.039062 69.308594 L 32.039062 72.308594 L 0.839844 72.308594 Z M 0.839844 69.308594 " clip-rule="nonzero"/></clipPath><clipPath id="fb5fb907b8"><path d="M 0.839844 87.796875 L 32.039062 87.796875 L 32.039062 90.796875 L 0.839844 90.796875 Z M 0.839844 87.796875 " clip-rule="nonzero"/></clipPath><clipPath id="ee33b1f187"><path d="M 0.839844 106.289062 L 32.039062 106.289062 L 32.039062 109.289062 L 0.839844 109.289062 Z M 0.839844 106.289062 " clip-rule="nonzero"/></clipPath><clipPath id="9edab42857"><path d="M 0.839844 124.777344 L 32.039062 124.777344 L 32.039062 127.777344 L 0.839844 127.777344 Z M 0.839844 124.777344 " clip-rule="nonzero"/></clipPath><clipPath id="7b7f44f607"><path d="M 0.839844 143.269531 L 32.039062 143.269531 L 32.039062 146.269531 L 0.839844 146.269531 Z M 0.839844 143.269531 " clip-rule="nonzero"/></clipPath><clipPath id="4a2861d474"><path d="M 0.839844 161.757812 L 32.039062 161.757812 L 32.039062 164.757812 L 0.839844 164.757812 Z M 0.839844 161.757812 " clip-rule="nonzero"/></clipPath><clipPath id="ebded93818"><path d="M 0.839844 180.25 L 32.039062 180.25 L 32.039062 183.25 L 0.839844 183.25 Z M 0.839844 180.25 " clip-rule="nonzero"/></clipPath><clipPath id="9a71cdacdc"><rect x="0" width="33" y="0" height="199"/></clipPath><mask id="5c6845bf11"><g filter="url(#32366f5d5a)"><rect x="-37.5" width="450" fill="#000000" y="-37.499999" height="449.999989" fill-opacity="0.3"/></g></mask><clipPath id="e3d9fd29c1"><rect x="0" width="35" y="0" height="17"/></clipPath><mask id="82d64a0c3b"><g filter="url(#32366f5d5a)"><rect x="-37.5" width="450" fill="#000000" y="-37.499999" height="449.999989" fill-opacity="0.3"/></g></mask><clipPath id="78ce08d845"><rect x="0" width="41" y="0" height="17"/></clipPath><mask id="0ff14825a0"><g filter="url(#32366f5d5a)"><rect x="-37.5" width="450" fill="#000000" y="-37.499999" height="449.999989" fill-opacity="0.3"/></g></mask><clipPath id="2bc9caca95"><path d="M 0.121094 4 L 42 4 L 42 14 L 0.121094 14 Z M 0.121094 4 " clip-rule="nonzero"/></clipPath><clipPath id="0c13bab080"><rect x="0" width="43" y="0" height="17"/></clipPath><mask id="2d1d45230d"><g filter="url(#32366f5d5a)"><rect x="-37.5" width="450" fill="#000000" y="-37.499999" height="449.999989" fill-opacity="0.3"/></g></mask><clipPath id="d814278713"><rect x="0" width="32" y="0" height="17"/></clipPath><mask id="47293d1e16"><g filter="url(#32366f5d5a)"><rect x="-37.5" width="450" fill="#000000" y="-37.499999" height="449.999989" fill-opacity="0.3"/></g></mask><clipPath id="f28ae7a184"><rect x="0" width="42" y="0" height="17"/></clipPath><mask id="37b402ecd4"><g filter="url(#32366f5d5a)"><rect x="-37.5" width="450" fill="#000000" y="-37.499999" height="449.999989" fill-opacity="0.3"/></g></mask><clipPath id="03ebabda25"><rect x="0" width="33" y="0" height="17"/></clipPath><mask id="bb028e9987"><g filter="url(#32366f5d5a)"><rect x="-37.5" width="450" fill="#000000" y="-37.499999" height="449.999989" fill-opacity="0.3"/></g></mask><clipPath id="676e6c28af"><path d="M 0.0390625 3 L 37 3 L 37 14 L 0.0390625 14 Z M 0.0390625 3 " clip-rule="nonzero"/></clipPath><clipPath id="c4fdabaee6"><rect x="0" width="38" y="0" height="17"/></clipPath></defs><g mask="url(#5243f22a0a)"><g transform="matrix(1, 0, 0, 1, 17, 86)"><g clip-path="url(#5b7ef887a3)"><g clip-path="url(#324145d793)"><g clip-path="url(#db4aa60774)"><g transform="matrix(1, 0, 0, 1, 11, 0)"><g clip-path="url(#0e297da495)"><g clip-path="url(#8867b611d5)"><g clip-path="url(#56b3a72a5f)"><path fill="#d9d9d9" d="M 0.835938 0.859375 L 9.5 0.859375 L 9.5 198.648438 L 0.835938 198.648438 Z M 0.835938 0.859375 " fill-opacity="1" fill-rule="nonzero"/></g></g></g></g></g></g><g clip-path="url(#969c83bc9a)"><path fill="#d9d9d9" d="M 0.578125 13.839844 L 0.578125 16.957031 L 31.75 16.957031 L 31.75 13.839844 Z M 0.578125 13.839844 " fill-opacity="1" fill-rule="nonzero"/></g><g clip-path="url(#21125656ef)"><path fill="#d9d9d9" d="M 0.578125 32.328125 L 0.578125 35.445312 L 31.75 35.445312 L 31.75 32.328125 Z M 0.578125 32.328125 " fill-opacity="1" fill-rule="nonzero"/></g><g clip-path="url(#12a7f0b685)"><path fill="#d9d9d9" d="M 0.578125 50.820312 L 0.578125 53.9375 L 31.75 53.9375 L 31.75 50.820312 Z M 0.578125 50.820312 " fill-opacity="1" fill-rule="nonzero"/></g><g clip-path="url(#30d46be436)"><path fill="#d9d9d9" d="M 0.578125 69.308594 L 0.578125 72.425781 L 31.75 72.425781 L 31.75 69.308594 Z M 0.578125 69.308594 " fill-opacity="1" fill-rule="nonzero"/></g><g clip-path="url(#b0ee22ba1c)"><path fill="#d9d9d9" d="M 0.578125 87.796875 L 0.578125 90.914062 L 31.75 90.914062 L 31.75 87.796875 Z M 0.578125 87.796875 " fill-opacity="1" fill-rule="nonzero"/></g><g clip-path="url(#0f899636c1)"><path fill="#d9d9d9" d="M 0.578125 106.289062 L 0.578125 109.40625 L 31.75 109.40625 L 31.75 106.289062 Z M 0.578125 106.289062 " fill-opacity="1" fill-rule="nonzero"/></g><g clip-path="url(#6fa01c863d)"><path fill="#d9d9d9" d="M 0.578125 124.777344 L 0.578125 127.894531 L 31.75 127.894531 L 31.75 124.777344 Z M 0.578125 124.777344 " fill-opacity="1" fill-rule="nonzero"/></g><g clip-path="url(#eba6913465)"><path fill="#d9d9d9" d="M 0.578125 143.269531 L 0.578125 146.386719 L 31.75 146.386719 L 31.75 143.269531 Z M 0.578125 143.269531 " fill-opacity="1" fill-rule="nonzero"/></g><g clip-path="url(#1a11b1e37a)"><path fill="#d9d9d9" d="M 0.578125 161.757812 L 0.578125 164.875 L 31.75 164.875 L 31.75 161.757812 Z M 0.578125 161.757812 " fill-opacity="1" fill-rule="nonzero"/></g><g clip-path="url(#50de852e7d)"><path fill="#d9d9d9" d="M 0.578125 180.25 L 0.578125 183.367188 L 31.75 183.367188 L 31.75 180.25 Z M 0.578125 180.25 " fill-opacity="1" fill-rule="nonzero"/></g></g></g></g><g mask="url(#1a7d14b68b)"><g transform="matrix(1, 0, 0, 1, 116, 86)"><g clip-path="url(#1cc6a64147)"><g clip-path="url(#3d9b2e51c7)"><g clip-path="url(#4d9f8e6b96)"><g transform="matrix(1, 0, 0, 1, 11, 0)"><g clip-path="url(#523e79d486)"><g clip-path="url(#8d7ffcbed4)"><g clip-path="url(#dbd78656ae)"><path fill="#d9d9d9" d="M 0.683594 0.859375 L 9.351562 0.859375 L 9.351562 198.648438 L 0.683594 198.648438 Z M 0.683594 0.859375 " fill-opacity="1" fill-rule="nonzero"/></g></g></g></g></g></g><g clip-path="url(#17075ce346)"><path fill="#d9d9d9" d="M 0.429688 13.839844 L 0.429688 16.957031 L 31.601562 16.957031 L 31.601562 13.839844 Z M 0.429688 13.839844 " fill-opacity="1" fill-rule="nonzero"/></g><g clip-path="url(#bb614d7e0e)"><path fill="#d9d9d9" d="M 0.429688 32.328125 L 0.429688 35.445312 L 31.601562 35.445312 L 31.601562 32.328125 Z M 0.429688 32.328125 " fill-opacity="1" fill-rule="nonzero"/></g><g clip-path="url(#236e5ee854)"><path fill="#d9d9d9" d="M 0.429688 50.820312 L 0.429688 53.9375 L 31.601562 53.9375 L 31.601562 50.820312 Z M 0.429688 50.820312 " fill-opacity="1" fill-rule="nonzero"/></g><g clip-path="url(#9de494b551)"><path fill="#d9d9d9" d="M 0.429688 69.308594 L 0.429688 72.425781 L 31.601562 72.425781 L 31.601562 69.308594 Z M 0.429688 69.308594 " fill-opacity="1" fill-rule="nonzero"/></g><g clip-path="url(#bb07cbb36b)"><path fill="#d9d9d9" d="M 0.429688 87.796875 L 0.429688 90.914062 L 31.601562 90.914062 L 31.601562 87.796875 Z M 0.429688 87.796875 " fill-opacity="1" fill-rule="nonzero"/></g><g clip-path="url(#6aba535313)"><path fill="#d9d9d9" d="M 0.429688 106.289062 L 0.429688 109.40625 L 31.601562 109.40625 L 31.601562 106.289062 Z M 0.429688 106.289062 " fill-opacity="1" fill-rule="nonzero"/></g><g clip-path="url(#b0c258f1d5)"><path fill="#d9d9d9" d="M 0.429688 124.777344 L 0.429688 127.894531 L 31.601562 127.894531 L 31.601562 124.777344 Z M 0.429688 124.777344 " fill-opacity="1" fill-rule="nonzero"/></g><g clip-path="url(#a417cf6a09)"><path fill="#d9d9d9" d="M 0.429688 143.269531 L 0.429688 146.386719 L 31.601562 146.386719 L 31.601562 143.269531 Z M 0.429688 143.269531 " fill-opacity="1" fill-rule="nonzero"/></g><g clip-path="url(#84d4a3d78a)"><path fill="#d9d9d9" d="M 0.429688 161.757812 L 0.429688 164.875 L 31.601562 164.875 L 31.601562 161.757812 Z M 0.429688 161.757812 " fill-opacity="1" fill-rule="nonzero"/></g><g clip-path="url(#14e57b554e)"><path fill="#d9d9d9" d="M 0.429688 180.25 L 0.429688 183.367188 L 31.601562 183.367188 L 31.601562 180.25 Z M 0.429688 180.25 " fill-opacity="1" fill-rule="nonzero"/></g></g></g></g><g mask="url(#f966bacf2f)"><g transform="matrix(1, 0, 0, 1, 215, 86)"><g clip-path="url(#5fdf32f743)"><g clip-path="url(#fde5ce78b8)"><g clip-path="url(#f84070987d)"><g transform="matrix(1, 0, 0, 1, 11, 0)"><g clip-path="url(#90a6a20fef)"><g clip-path="url(#732a27768d)"><g clip-path="url(#daf8817391)"><path fill="#d9d9d9" d="M 0.535156 0.859375 L 9.199219 0.859375 L 9.199219 198.648438 L 0.535156 198.648438 Z M 0.535156 0.859375 " fill-opacity="1" fill-rule="nonzero"/></g></g></g></g></g></g><g clip-path="url(#faa18854c4)"><path fill="#d9d9d9" d="M 0.277344 13.839844 L 0.277344 16.957031 L 31.449219 16.957031 L 31.449219 13.839844 Z M 0.277344 13.839844 " fill-opacity="1" fill-rule="nonzero"/></g><g clip-path="url(#6b719b732b)"><path fill="#d9d9d9" d="M 0.277344 32.328125 L 0.277344 35.445312 L 31.449219 35.445312 L 31.449219 32.328125 Z M 0.277344 32.328125 " fill-opacity="1" fill-rule="nonzero"/></g><g clip-path="url(#4291945ec2)"><path fill="#d9d9d9" d="M 0.277344 50.820312 L 0.277344 53.9375 L 31.449219 53.9375 L 31.449219 50.820312 Z M 0.277344 50.820312 " fill-opacity="1" fill-rule="nonzero"/></g><g clip-path="url(#1409626e90)"><path fill="#d9d9d9" d="M 0.277344 69.308594 L 0.277344 72.425781 L 31.449219 72.425781 L 31.449219 69.308594 Z M 0.277344 69.308594 " fill-opacity="1" fill-rule="nonzero"/></g><g clip-path="url(#adea489b04)"><path fill="#d9d9d9" d="M 0.277344 87.796875 L 0.277344 90.914062 L 31.449219 90.914062 L 31.449219 87.796875 Z M 0.277344 87.796875 " fill-opacity="1" fill-rule="nonzero"/></g><g clip-path="url(#c5896fde65)"><path fill="#d9d9d9" d="M 0.277344 106.289062 L 0.277344 109.40625 L 31.449219 109.40625 L 31.449219 106.289062 Z M 0.277344 106.289062 " fill-opacity="1" fill-rule="nonzero"/></g><g clip-path="url(#80d761f11b)"><path fill="#d9d9d9" d="M 0.277344 124.777344 L 0.277344 127.894531 L 31.449219 127.894531 L 31.449219 124.777344 Z M 0.277344 124.777344 " fill-opacity="1" fill-rule="nonzero"/></g><g clip-path="url(#ce754a9839)"><path fill="#d9d9d9" d="M 0.277344 143.269531 L 0.277344 146.386719 L 31.449219 146.386719 L 31.449219 143.269531 Z M 0.277344 143.269531 " fill-opacity="1" fill-rule="nonzero"/></g><g clip-path="url(#218871277e)"><path fill="#d9d9d9" d="M 0.277344 161.757812 L 0.277344 164.875 L 31.449219 164.875 L 31.449219 161.757812 Z M 0.277344 161.757812 " fill-opacity="1" fill-rule="nonzero"/></g><g clip-path="url(#3730e48a83)"><path fill="#d9d9d9" d="M 0.277344 180.25 L 0.277344 183.367188 L 31.449219 183.367188 L 31.449219 180.25 Z M 0.277344 180.25 " fill-opacity="1" fill-rule="nonzero"/></g></g></g></g><g mask="url(#8b0ecaa7e7)"><g transform="matrix(1, 0, 0, 1, 264, 86)"><g clip-path="url(#1d75f9b2ac)"><g clip-path="url(#05e9a7d620)"><g clip-path="url(#1774743c78)"><g transform="matrix(1, 0, 0, 1, 11, 0)"><g clip-path="url(#46c0159986)"><g clip-path="url(#61d8ced730)"><g clip-path="url(#52551c7007)"><path fill="#d9d9d9" d="M 0.960938 0.859375 L 9.625 0.859375 L 9.625 198.648438 L 0.960938 198.648438 Z M 0.960938 0.859375 " fill-opacity="1" fill-rule="nonzero"/></g></g></g></g></g></g><g clip-path="url(#d1e5787627)"><path fill="#d9d9d9" d="M 0.703125 13.839844 L 0.703125 16.957031 L 31.875 16.957031 L 31.875 13.839844 Z M 0.703125 13.839844 " fill-opacity="1" fill-rule="nonzero"/></g><g clip-path="url(#b1081fd265)"><path fill="#d9d9d9" d="M 0.703125 32.328125 L 0.703125 35.445312 L 31.875 35.445312 L 31.875 32.328125 Z M 0.703125 32.328125 " fill-opacity="1" fill-rule="nonzero"/></g><g clip-path="url(#84747f36c4)"><path fill="#d9d9d9" d="M 0.703125 50.820312 L 0.703125 53.9375 L 31.875 53.9375 L 31.875 50.820312 Z M 0.703125 50.820312 " fill-opacity="1" fill-rule="nonzero"/></g><g clip-path="url(#5ee82f683e)"><path fill="#d9d9d9" d="M 0.703125 69.308594 L 0.703125 72.425781 L 31.875 72.425781 L 31.875 69.308594 Z M 0.703125 69.308594 " fill-opacity="1" fill-rule="nonzero"/></g><g clip-path="url(#e8bc9193b9)"><path fill="#d9d9d9" d="M 0.703125 87.796875 L 0.703125 90.914062 L 31.875 90.914062 L 31.875 87.796875 Z M 0.703125 87.796875 " fill-opacity="1" fill-rule="nonzero"/></g><g clip-path="url(#43828d2feb)"><path fill="#d9d9d9" d="M 0.703125 106.289062 L 0.703125 109.40625 L 31.875 109.40625 L 31.875 106.289062 Z M 0.703125 106.289062 " fill-opacity="1" fill-rule="nonzero"/></g><g clip-path="url(#1aea35c9d1)"><path fill="#d9d9d9" d="M 0.703125 124.777344 L 0.703125 127.894531 L 31.875 127.894531 L 31.875 124.777344 Z M 0.703125 124.777344 " fill-opacity="1" fill-rule="nonzero"/></g><g clip-path="url(#4d8f69b054)"><path fill="#d9d9d9" d="M 0.703125 143.269531 L 0.703125 146.386719 L 31.875 146.386719 L 31.875 143.269531 Z M 0.703125 143.269531 " fill-opacity="1" fill-rule="nonzero"/></g><g clip-path="url(#d5f84edfe9)"><path fill="#d9d9d9" d="M 0.703125 161.757812 L 0.703125 164.875 L 31.875 164.875 L 31.875 161.757812 Z M 0.703125 161.757812 " fill-opacity="1" fill-rule="nonzero"/></g><g clip-path="url(#df718b90bc)"><path fill="#d9d9d9" d="M 0.703125 180.25 L 0.703125 183.367188 L 31.875 183.367188 L 31.875 180.25 Z M 0.703125 180.25 " fill-opacity="1" fill-rule="nonzero"/></g></g></g></g><g mask="url(#cf4bf2eaf8)"><g transform="matrix(1, 0, 0, 1, 313, 86)"><g clip-path="url(#3f523a4643)"><g clip-path="url(#867b60a92d)"><g clip-path="url(#fe3842ea67)"><g transform="matrix(1, 0, 0, 1, 12, 0)"><g clip-path="url(#08678ddd7a)"><g clip-path="url(#4bee927389)"><g clip-path="url(#0653b1f392)"><path fill="#d9d9d9" d="M 0.386719 0.859375 L 9.050781 0.859375 L 9.050781 198.648438 L 0.386719 198.648438 Z M 0.386719 0.859375 " fill-opacity="1" fill-rule="nonzero"/></g></g></g></g></g></g><g clip-path="url(#4bd15eb371)"><path fill="#d9d9d9" d="M 1.128906 13.839844 L 1.128906 16.957031 L 32.300781 16.957031 L 32.300781 13.839844 Z M 1.128906 13.839844 " fill-opacity="1" fill-rule="nonzero"/></g><g clip-path="url(#a97431a5b7)"><path fill="#d9d9d9" d="M 1.128906 32.328125 L 1.128906 35.445312 L 32.300781 35.445312 L 32.300781 32.328125 Z M 1.128906 32.328125 " fill-opacity="1" fill-rule="nonzero"/></g><g clip-path="url(#ee545a8718)"><path fill="#d9d9d9" d="M 1.128906 50.820312 L 1.128906 53.9375 L 32.300781 53.9375 L 32.300781 50.820312 Z M 1.128906 50.820312 " fill-opacity="1" fill-rule="nonzero"/></g><g clip-path="url(#ef4a596104)"><path fill="#d9d9d9" d="M 1.128906 69.308594 L 1.128906 72.425781 L 32.300781 72.425781 L 32.300781 69.308594 Z M 1.128906 69.308594 " fill-opacity="1" fill-rule="nonzero"/></g><g clip-path="url(#a51527b498)"><path fill="#d9d9d9" d="M 1.128906 87.796875 L 1.128906 90.914062 L 32.300781 90.914062 L 32.300781 87.796875 Z M 1.128906 87.796875 " fill-opacity="1" fill-rule="nonzero"/></g><g clip-path="url(#dc0b97c836)"><path fill="#d9d9d9" d="M 1.128906 106.289062 L 1.128906 109.40625 L 32.300781 109.40625 L 32.300781 106.289062 Z M 1.128906 106.289062 " fill-opacity="1" fill-rule="nonzero"/></g><g clip-path="url(#b60dc9810e)"><path fill="#d9d9d9" d="M 1.128906 124.777344 L 1.128906 127.894531 L 32.300781 127.894531 L 32.300781 124.777344 Z M 1.128906 124.777344 " fill-opacity="1" fill-rule="nonzero"/></g><g clip-path="url(#e91a5ed092)"><path fill="#d9d9d9" d="M 1.128906 143.269531 L 1.128906 146.386719 L 32.300781 146.386719 L 32.300781 143.269531 Z M 1.128906 143.269531 " fill-opacity="1" fill-rule="nonzero"/></g><g clip-path="url(#3c5f9cd5e5)"><path fill="#d9d9d9" d="M 1.128906 161.757812 L 1.128906 164.875 L 32.300781 164.875 L 32.300781 161.757812 Z M 1.128906 161.757812 " fill-opacity="1" fill-rule="nonzero"/></g><g clip-path="url(#b4241815af)"><path fill="#d9d9d9" d="M 1.128906 180.25 L 1.128906 183.367188 L 32.300781 183.367188 L 32.300781 180.25 Z M 1.128906 180.25 " fill-opacity="1" fill-rule="nonzero"/></g></g></g></g><g mask="url(#e31f6f76b6)"><g transform="matrix(1, 0, 0, 1, 66, 86)"><g clip-path="url(#cac44891f6)"><g clip-path="url(#bfec84b517)"><g clip-path="url(#aeacc3f3af)"><g transform="matrix(1, 0, 0, 1, 12, 0)"><g clip-path="url(#1c4bcecb80)"><g clip-path="url(#ba1bc3756b)"><g clip-path="url(#65f51bc26a)"><path fill="#d9d9d9" d="M 0.261719 0.859375 L 8.925781 0.859375 L 8.925781 198.648438 L 0.261719 198.648438 Z M 0.261719 0.859375 " fill-opacity="1" fill-rule="nonzero"/></g></g></g></g></g></g><g clip-path="url(#cfbedcc101)"><path fill="#d9d9d9" d="M 1.003906 13.839844 L 1.003906 16.957031 L 32.175781 16.957031 L 32.175781 13.839844 Z M 1.003906 13.839844 " fill-opacity="1" fill-rule="nonzero"/></g><g clip-path="url(#56a8c309e2)"><path fill="#d9d9d9" d="M 1.003906 32.328125 L 1.003906 35.445312 L 32.175781 35.445312 L 32.175781 32.328125 Z M 1.003906 32.328125 " fill-opacity="1" fill-rule="nonzero"/></g><g clip-path="url(#cb6928d6d2)"><path fill="#d9d9d9" d="M 1.003906 50.820312 L 1.003906 53.9375 L 32.175781 53.9375 L 32.175781 50.820312 Z M 1.003906 50.820312 " fill-opacity="1" fill-rule="nonzero"/></g><g clip-path="url(#a2a6d8ca43)"><path fill="#d9d9d9" d="M 1.003906 69.308594 L 1.003906 72.425781 L 32.175781 72.425781 L 32.175781 69.308594 Z M 1.003906 69.308594 " fill-opacity="1" fill-rule="nonzero"/></g><g clip-path="url(#c604fe357d)"><path fill="#d9d9d9" d="M 1.003906 87.796875 L 1.003906 90.914062 L 32.175781 90.914062 L 32.175781 87.796875 Z M 1.003906 87.796875 " fill-opacity="1" fill-rule="nonzero"/></g><g clip-path="url(#110bd274e8)"><path fill="#d9d9d9" d="M 1.003906 106.289062 L 1.003906 109.40625 L 32.175781 109.40625 L 32.175781 106.289062 Z M 1.003906 106.289062 " fill-opacity="1" fill-rule="nonzero"/></g><g clip-path="url(#3aa501178a)"><path fill="#d9d9d9" d="M 1.003906 124.777344 L 1.003906 127.894531 L 32.175781 127.894531 L 32.175781 124.777344 Z M 1.003906 124.777344 " fill-opacity="1" fill-rule="nonzero"/></g><g clip-path="url(#15ec5c9c37)"><path fill="#d9d9d9" d="M 1.003906 143.269531 L 1.003906 146.386719 L 32.175781 146.386719 L 32.175781 143.269531 Z M 1.003906 143.269531 " fill-opacity="1" fill-rule="nonzero"/></g><g clip-path="url(#f14f900608)"><path fill="#d9d9d9" d="M 1.003906 161.757812 L 1.003906 164.875 L 32.175781 164.875 L 32.175781 161.757812 Z M 1.003906 161.757812 " fill-opacity="1" fill-rule="nonzero"/></g><g clip-path="url(#7333d97ba9)"><path fill="#d9d9d9" d="M 1.003906 180.25 L 1.003906 183.367188 L 32.175781 183.367188 L 32.175781 180.25 Z M 1.003906 180.25 " fill-opacity="1" fill-rule="nonzero"/></g></g></g></g><g mask="url(#bfd34a8a77)"><g transform="matrix(1, 0, 0, 1, 165, 86)"><g clip-path="url(#9a71cdacdc)"><g clip-path="url(#965a09aaad)"><g clip-path="url(#5ccbecb79a)"><g transform="matrix(1, 0, 0, 1, 12, 0)"><g clip-path="url(#6621bb1e60)"><g clip-path="url(#d5a0d691a0)"><g clip-path="url(#a5b4ff816f)"><path fill="#d9d9d9" d="M 0.109375 0.859375 L 8.773438 0.859375 L 8.773438 198.648438 L 0.109375 198.648438 Z M 0.109375 0.859375 " fill-opacity="1" fill-rule="nonzero"/></g></g></g></g></g></g><g clip-path="url(#bd821c33e2)"><path fill="#d9d9d9" d="M 0.855469 13.839844 L 0.855469 16.957031 L 32.027344 16.957031 L 32.027344 13.839844 Z M 0.855469 13.839844 " fill-opacity="1" fill-rule="nonzero"/></g><g clip-path="url(#2ddd9b75ba)"><path fill="#d9d9d9" d="M 0.855469 32.328125 L 0.855469 35.445312 L 32.027344 35.445312 L 32.027344 32.328125 Z M 0.855469 32.328125 " fill-opacity="1" fill-rule="nonzero"/></g><g clip-path="url(#d3d4febb43)"><path fill="#d9d9d9" d="M 0.855469 50.820312 L 0.855469 53.9375 L 32.027344 53.9375 L 32.027344 50.820312 Z M 0.855469 50.820312 " fill-opacity="1" fill-rule="nonzero"/></g><g clip-path="url(#8b7627b5cb)"><path fill="#d9d9d9" d="M 0.855469 69.308594 L 0.855469 72.425781 L 32.027344 72.425781 L 32.027344 69.308594 Z M 0.855469 69.308594 " fill-opacity="1" fill-rule="nonzero"/></g><g clip-path="url(#fb5fb907b8)"><path fill="#d9d9d9" d="M 0.855469 87.796875 L 0.855469 90.914062 L 32.027344 90.914062 L 32.027344 87.796875 Z M 0.855469 87.796875 " fill-opacity="1" fill-rule="nonzero"/></g><g clip-path="url(#ee33b1f187)"><path fill="#d9d9d9" d="M 0.855469 106.289062 L 0.855469 109.40625 L 32.027344 109.40625 L 32.027344 106.289062 Z M 0.855469 106.289062 " fill-opacity="1" fill-rule="nonzero"/></g><g clip-path="url(#9edab42857)"><path fill="#d9d9d9" d="M 0.855469 124.777344 L 0.855469 127.894531 L 32.027344 127.894531 L 32.027344 124.777344 Z M 0.855469 124.777344 " fill-opacity="1" fill-rule="nonzero"/></g><g clip-path="url(#7b7f44f607)"><path fill="#d9d9d9" d="M 0.855469 143.269531 L 0.855469 146.386719 L 32.027344 146.386719 L 32.027344 143.269531 Z M 0.855469 143.269531 " fill-opacity="1" fill-rule="nonzero"/></g><g clip-path="url(#4a2861d474)"><path fill="#d9d9d9" d="M 0.855469 161.757812 L 0.855469 164.875 L 32.027344 164.875 L 32.027344 161.757812 Z M 0.855469 161.757812 " fill-opacity="1" fill-rule="nonzero"/></g><g clip-path="url(#ebded93818)"><path fill="#d9d9d9" d="M 0.855469 180.25 L 0.855469 183.367188 L 32.027344 183.367188 L 32.027344 180.25 Z M 0.855469 180.25 " fill-opacity="1" fill-rule="nonzero"/></g></g></g></g><g mask="url(#5c6845bf11)"><g transform="matrix(1, 0, 0, 1, 16, 293)"><g clip-path="url(#e3d9fd29c1)"><g fill="#d9d9d9" fill-opacity="1"><g transform="translate(0.28659, 12.911562)"><g><path d="M 4.09375 0.125 C 3.488281 0.125 2.941406 -0.0195312 2.453125 -0.3125 C 1.972656 -0.601562 1.585938 -1.078125 1.296875 -1.734375 C 1.015625 -2.390625 0.875 -3.238281 0.875 -4.28125 C 0.875 -5.289062 1.015625 -6.125 1.296875 -6.78125 C 1.585938 -7.445312 1.984375 -7.929688 2.484375 -8.234375 C 2.984375 -8.535156 3.550781 -8.6875 4.1875 -8.6875 C 5.28125 -8.6875 6.085938 -8.351562 6.609375 -7.6875 L 6.125 -7.03125 L 5.96875 -7.03125 C 5.550781 -7.53125 4.957031 -7.78125 4.1875 -7.78125 C 3.445312 -7.78125 2.878906 -7.5 2.484375 -6.9375 C 2.097656 -6.382812 1.90625 -5.492188 1.90625 -4.265625 L 2.015625 -4.21875 C 2.253906 -4.707031 2.5625 -5.070312 2.9375 -5.3125 C 3.3125 -5.550781 3.769531 -5.671875 4.3125 -5.671875 C 4.863281 -5.671875 5.335938 -5.554688 5.734375 -5.328125 C 6.128906 -5.097656 6.429688 -4.765625 6.640625 -4.328125 C 6.847656 -3.898438 6.953125 -3.390625 6.953125 -2.796875 C 6.953125 -2.203125 6.832031 -1.6875 6.59375 -1.25 C 6.363281 -0.8125 6.03125 -0.472656 5.59375 -0.234375 C 5.164062 0.00390625 4.664062 0.125 4.09375 0.125 Z M 4.09375 -0.78125 C 4.65625 -0.78125 5.097656 -0.953125 5.421875 -1.296875 C 5.742188 -1.640625 5.90625 -2.140625 5.90625 -2.796875 C 5.90625 -3.441406 5.742188 -3.9375 5.421875 -4.28125 C 5.097656 -4.625 4.65625 -4.796875 4.09375 -4.796875 C 3.707031 -4.796875 3.367188 -4.71875 3.078125 -4.5625 C 2.796875 -4.40625 2.578125 -4.175781 2.421875 -3.875 C 2.265625 -3.570312 2.1875 -3.210938 2.1875 -2.796875 C 2.1875 -2.367188 2.265625 -2.003906 2.421875 -1.703125 C 2.578125 -1.410156 2.796875 -1.179688 3.078125 -1.015625 C 3.367188 -0.859375 3.707031 -0.78125 4.09375 -0.78125 Z M 4.09375 -0.78125 "/></g></g><g transform="translate(8.003387, 12.911562)"><g><path d="M 4.21875 0.125 C 3.582031 0.125 3.015625 -0.0234375 2.515625 -0.328125 C 2.015625 -0.628906 1.613281 -1.109375 1.3125 -1.765625 C 1.019531 -2.429688 0.875 -3.269531 0.875 -4.28125 C 0.875 -5.300781 1.019531 -6.140625 1.3125 -6.796875 C 1.613281 -7.453125 2.015625 -7.929688 2.515625 -8.234375 C 3.015625 -8.535156 3.582031 -8.6875 4.21875 -8.6875 C 4.84375 -8.6875 5.40625 -8.535156 5.90625 -8.234375 C 6.40625 -7.929688 6.800781 -7.453125 7.09375 -6.796875 C 7.394531 -6.140625 7.546875 -5.300781 7.546875 -4.28125 C 7.546875 -3.269531 7.394531 -2.429688 7.09375 -1.765625 C 6.800781 -1.109375 6.40625 -0.628906 5.90625 -0.328125 C 5.40625 -0.0234375 4.84375 0.125 4.21875 0.125 Z M 4.21875 -0.8125 C 4.957031 -0.8125 5.519531 -1.078125 5.90625 -1.609375 C 6.289062 -2.148438 6.484375 -3.039062 6.484375 -4.28125 C 6.484375 -5.519531 6.289062 -6.410156 5.90625 -6.953125 C 5.519531 -7.492188 4.957031 -7.765625 4.21875 -7.765625 C 3.71875 -7.765625 3.300781 -7.648438 2.96875 -7.421875 C 2.632812 -7.191406 2.378906 -6.820312 2.203125 -6.3125 C 2.023438 -5.800781 1.9375 -5.125 1.9375 -4.28125 C 1.9375 -3.445312 2.023438 -2.769531 2.203125 -2.25 C 2.378906 -1.738281 2.632812 -1.367188 2.96875 -1.140625 C 3.300781 -0.921875 3.71875 -0.8125 4.21875 -0.8125 Z M 4.21875 -0.8125 "/></g></g><g transform="translate(16.429167, 12.911562)"><g/></g><g transform="translate(19.370574, 12.911562)"><g><path d="M 6.75 -5.09375 L 6.75 -8.5625 L 7.765625 -8.5625 L 7.765625 0 L 6.75 0 L 6.75 -4.234375 L 2.296875 -4.234375 L 2.296875 0 L 1.296875 0 L 1.296875 -8.5625 L 2.296875 -8.5625 L 2.296875 -5.09375 Z M 6.75 -5.09375 "/></g></g><g transform="translate(28.429167, 12.911562)"><g><path d="M 5.171875 0 L 0.4375 0 L 0.4375 -0.828125 L 3.984375 -5.5625 L 3.953125 -5.6875 L 0.59375 -5.6875 L 0.59375 -6.46875 L 5.109375 -6.46875 L 5.109375 -5.640625 L 1.5625 -0.90625 L 1.609375 -0.78125 L 5.171875 -0.78125 Z M 5.171875 0 "/></g></g></g></g></g></g><g mask="url(#82d64a0c3b)"><g transform="matrix(1, 0, 0, 1, 62, 293)"><g clip-path="url(#78ce08d845)"><g fill="#d9d9d9" fill-opacity="1"><g transform="translate(0.830254, 12.911562)"><g><path d="M 0.609375 0 L 0.609375 -0.828125 L 2.953125 -0.828125 L 2.953125 -7.390625 L 2.8125 -7.421875 C 2.4375 -7.234375 2.101562 -7.085938 1.8125 -6.984375 C 1.53125 -6.890625 1.164062 -6.796875 0.71875 -6.703125 L 0.71875 -7.625 C 1.164062 -7.71875 1.601562 -7.84375 2.03125 -8 C 2.457031 -8.164062 2.847656 -8.351562 3.203125 -8.5625 L 3.9375 -8.5625 L 3.9375 -0.828125 L 6.03125 -0.828125 L 6.03125 0 Z M 0.609375 0 "/></g></g><g transform="translate(7.216973, 12.911562)"><g><path d="M 3.53125 0.125 C 2.726562 0.125 2.085938 -0.0507812 1.609375 -0.40625 C 1.128906 -0.757812 0.816406 -1.265625 0.671875 -1.921875 L 1.421875 -2.265625 L 1.546875 -2.234375 C 1.648438 -1.898438 1.78125 -1.628906 1.9375 -1.421875 C 2.09375 -1.210938 2.300781 -1.050781 2.5625 -0.9375 C 2.820312 -0.832031 3.144531 -0.78125 3.53125 -0.78125 C 4.101562 -0.78125 4.550781 -0.953125 4.875 -1.296875 C 5.195312 -1.648438 5.359375 -2.15625 5.359375 -2.8125 C 5.359375 -3.488281 5.195312 -4 4.875 -4.34375 C 4.5625 -4.695312 4.128906 -4.875 3.578125 -4.875 C 3.148438 -4.875 2.800781 -4.785156 2.53125 -4.609375 C 2.269531 -4.441406 2.035156 -4.179688 1.828125 -3.828125 L 1.03125 -3.890625 L 1.1875 -8.5625 L 5.984375 -8.5625 L 5.984375 -7.71875 L 2.0625 -7.71875 L 1.96875 -4.875 L 2.09375 -4.84375 C 2.289062 -5.144531 2.535156 -5.367188 2.828125 -5.515625 C 3.117188 -5.660156 3.46875 -5.734375 3.875 -5.734375 C 4.382812 -5.734375 4.832031 -5.617188 5.21875 -5.390625 C 5.601562 -5.160156 5.898438 -4.828125 6.109375 -4.390625 C 6.316406 -3.953125 6.421875 -3.425781 6.421875 -2.8125 C 6.421875 -2.207031 6.300781 -1.679688 6.0625 -1.234375 C 5.820312 -0.796875 5.484375 -0.457031 5.046875 -0.21875 C 4.609375 0.0078125 4.101562 0.125 3.53125 0.125 Z M 3.53125 0.125 "/></g></g><g transform="translate(14.306816, 12.911562)"><g><path d="M 4.21875 0.125 C 3.582031 0.125 3.015625 -0.0234375 2.515625 -0.328125 C 2.015625 -0.628906 1.613281 -1.109375 1.3125 -1.765625 C 1.019531 -2.429688 0.875 -3.269531 0.875 -4.28125 C 0.875 -5.300781 1.019531 -6.140625 1.3125 -6.796875 C 1.613281 -7.453125 2.015625 -7.929688 2.515625 -8.234375 C 3.015625 -8.535156 3.582031 -8.6875 4.21875 -8.6875 C 4.84375 -8.6875 5.40625 -8.535156 5.90625 -8.234375 C 6.40625 -7.929688 6.800781 -7.453125 7.09375 -6.796875 C 7.394531 -6.140625 7.546875 -5.300781 7.546875 -4.28125 C 7.546875 -3.269531 7.394531 -2.429688 7.09375 -1.765625 C 6.800781 -1.109375 6.40625 -0.628906 5.90625 -0.328125 C 5.40625 -0.0234375 4.84375 0.125 4.21875 0.125 Z M 4.21875 -0.8125 C 4.957031 -0.8125 5.519531 -1.078125 5.90625 -1.609375 C 6.289062 -2.148438 6.484375 -3.039062 6.484375 -4.28125 C 6.484375 -5.519531 6.289062 -6.410156 5.90625 -6.953125 C 5.519531 -7.492188 4.957031 -7.765625 4.21875 -7.765625 C 3.71875 -7.765625 3.300781 -7.648438 2.96875 -7.421875 C 2.632812 -7.191406 2.378906 -6.820312 2.203125 -6.3125 C 2.023438 -5.800781 1.9375 -5.125 1.9375 -4.28125 C 1.9375 -3.445312 2.023438 -2.769531 2.203125 -2.25 C 2.378906 -1.738281 2.632812 -1.367188 2.96875 -1.140625 C 3.300781 -0.921875 3.71875 -0.8125 4.21875 -0.8125 Z M 4.21875 -0.8125 "/></g></g><g transform="translate(22.732597, 12.911562)"><g/></g><g transform="translate(25.674003, 12.911562)"><g><path d="M 6.75 -5.09375 L 6.75 -8.5625 L 7.765625 -8.5625 L 7.765625 0 L 6.75 0 L 6.75 -4.234375 L 2.296875 -4.234375 L 2.296875 0 L 1.296875 0 L 1.296875 -8.5625 L 2.296875 -8.5625 L 2.296875 -5.09375 Z M 6.75 -5.09375 "/></g></g><g transform="translate(34.732596, 12.911562)"><g><path d="M 5.171875 0 L 0.4375 0 L 0.4375 -0.828125 L 3.984375 -5.5625 L 3.953125 -5.6875 L 0.59375 -5.6875 L 0.59375 -6.46875 L 5.109375 -6.46875 L 5.109375 -5.640625 L 1.5625 -0.90625 L 1.609375 -0.78125 L 5.171875 -0.78125 Z M 5.171875 0 "/></g></g></g></g></g></g><g mask="url(#0ff14825a0)"><g transform="matrix(1, 0, 0, 1, 111, 293)"><g clip-path="url(#0c13bab080)"><g clip-path="url(#2bc9caca95)"><g fill="#d9d9d9" fill-opacity="1"><g transform="translate(0.148928, 12.911562)"><g><path d="M 5.359375 0 L 4.40625 0 L 4.40625 -2.046875 L 0.390625 -2.046875 L 0.390625 -2.859375 L 4.171875 -8.5625 L 5.359375 -8.5625 L 5.359375 -2.859375 L 6.84375 -2.859375 L 6.84375 -2.046875 L 5.359375 -2.046875 Z M 1.578125 -2.984375 L 1.625 -2.859375 L 4.40625 -2.859375 L 4.40625 -7.171875 L 4.265625 -7.203125 Z M 1.578125 -2.984375 "/></g></g><g transform="translate(7.408693, 12.911562)"><g><path d="M 4.21875 0.125 C 3.582031 0.125 3.015625 -0.0234375 2.515625 -0.328125 C 2.015625 -0.628906 1.613281 -1.109375 1.3125 -1.765625 C 1.019531 -2.429688 0.875 -3.269531 0.875 -4.28125 C 0.875 -5.300781 1.019531 -6.140625 1.3125 -6.796875 C 1.613281 -7.453125 2.015625 -7.929688 2.515625 -8.234375 C 3.015625 -8.535156 3.582031 -8.6875 4.21875 -8.6875 C 4.84375 -8.6875 5.40625 -8.535156 5.90625 -8.234375 C 6.40625 -7.929688 6.800781 -7.453125 7.09375 -6.796875 C 7.394531 -6.140625 7.546875 -5.300781 7.546875 -4.28125 C 7.546875 -3.269531 7.394531 -2.429688 7.09375 -1.765625 C 6.800781 -1.109375 6.40625 -0.628906 5.90625 -0.328125 C 5.40625 -0.0234375 4.84375 0.125 4.21875 0.125 Z M 4.21875 -0.8125 C 4.957031 -0.8125 5.519531 -1.078125 5.90625 -1.609375 C 6.289062 -2.148438 6.484375 -3.039062 6.484375 -4.28125 C 6.484375 -5.519531 6.289062 -6.410156 5.90625 -6.953125 C 5.519531 -7.492188 4.957031 -7.765625 4.21875 -7.765625 C 3.71875 -7.765625 3.300781 -7.648438 2.96875 -7.421875 C 2.632812 -7.191406 2.378906 -6.820312 2.203125 -6.3125 C 2.023438 -5.800781 1.9375 -5.125 1.9375 -4.28125 C 1.9375 -3.445312 2.023438 -2.769531 2.203125 -2.25 C 2.378906 -1.738281 2.632812 -1.367188 2.96875 -1.140625 C 3.300781 -0.921875 3.71875 -0.8125 4.21875 -0.8125 Z M 4.21875 -0.8125 "/></g></g><g transform="translate(15.834474, 12.911562)"><g><path d="M 4.21875 0.125 C 3.582031 0.125 3.015625 -0.0234375 2.515625 -0.328125 C 2.015625 -0.628906 1.613281 -1.109375 1.3125 -1.765625 C 1.019531 -2.429688 0.875 -3.269531 0.875 -4.28125 C 0.875 -5.300781 1.019531 -6.140625 1.3125 -6.796875 C 1.613281 -7.453125 2.015625 -7.929688 2.515625 -8.234375 C 3.015625 -8.535156 3.582031 -8.6875 4.21875 -8.6875 C 4.84375 -8.6875 5.40625 -8.535156 5.90625 -8.234375 C 6.40625 -7.929688 6.800781 -7.453125 7.09375 -6.796875 C 7.394531 -6.140625 7.546875 -5.300781 7.546875 -4.28125 C 7.546875 -3.269531 7.394531 -2.429688 7.09375 -1.765625 C 6.800781 -1.109375 6.40625 -0.628906 5.90625 -0.328125 C 5.40625 -0.0234375 4.84375 0.125 4.21875 0.125 Z M 4.21875 -0.8125 C 4.957031 -0.8125 5.519531 -1.078125 5.90625 -1.609375 C 6.289062 -2.148438 6.484375 -3.039062 6.484375 -4.28125 C 6.484375 -5.519531 6.289062 -6.410156 5.90625 -6.953125 C 5.519531 -7.492188 4.957031 -7.765625 4.21875 -7.765625 C 3.71875 -7.765625 3.300781 -7.648438 2.96875 -7.421875 C 2.632812 -7.191406 2.378906 -6.820312 2.203125 -6.3125 C 2.023438 -5.800781 1.9375 -5.125 1.9375 -4.28125 C 1.9375 -3.445312 2.023438 -2.769531 2.203125 -2.25 C 2.378906 -1.738281 2.632812 -1.367188 2.96875 -1.140625 C 3.300781 -0.921875 3.71875 -0.8125 4.21875 -0.8125 Z M 4.21875 -0.8125 "/></g></g><g transform="translate(24.260254, 12.911562)"><g/></g><g transform="translate(27.201661, 12.911562)"><g><path d="M 6.75 -5.09375 L 6.75 -8.5625 L 7.765625 -8.5625 L 7.765625 0 L 6.75 0 L 6.75 -4.234375 L 2.296875 -4.234375 L 2.296875 0 L 1.296875 0 L 1.296875 -8.5625 L 2.296875 -8.5625 L 2.296875 -5.09375 Z M 6.75 -5.09375 "/></g></g><g transform="translate(36.260254, 12.911562)"><g><path d="M 5.171875 0 L 0.4375 0 L 0.4375 -0.828125 L 3.984375 -5.5625 L 3.953125 -5.6875 L 0.59375 -5.6875 L 0.59375 -6.46875 L 5.109375 -6.46875 L 5.109375 -5.640625 L 1.5625 -0.90625 L 1.609375 -0.78125 L 5.171875 -0.78125 Z M 5.171875 0 "/></g></g></g></g></g></g></g><g mask="url(#2d1d45230d)"><g transform="matrix(1, 0, 0, 1, 166, 293)"><g clip-path="url(#d814278713)"><g fill="#d9d9d9" fill-opacity="1"><g transform="translate(0.430091, 12.911562)"><g><path d="M 0.609375 0 L 0.609375 -0.828125 L 2.953125 -0.828125 L 2.953125 -7.390625 L 2.8125 -7.421875 C 2.4375 -7.234375 2.101562 -7.085938 1.8125 -6.984375 C 1.53125 -6.890625 1.164062 -6.796875 0.71875 -6.703125 L 0.71875 -7.625 C 1.164062 -7.71875 1.601562 -7.84375 2.03125 -8 C 2.457031 -8.164062 2.847656 -8.351562 3.203125 -8.5625 L 3.9375 -8.5625 L 3.9375 -0.828125 L 6.03125 -0.828125 L 6.03125 0 Z M 0.609375 0 "/></g></g><g transform="translate(6.81681, 12.911562)"><g/></g><g transform="translate(9.758216, 12.911562)"><g><path d="M 1.125 0 L 1.125 -9.0625 L 2.078125 -9.0625 L 2.078125 -3.765625 L 2.234375 -3.765625 L 4.640625 -6.46875 L 5.640625 -6.46875 L 5.640625 -6.328125 L 3.078125 -3.421875 L 5.890625 -0.140625 L 5.890625 0 L 4.828125 0 L 2.234375 -2.984375 L 2.078125 -2.984375 L 2.078125 0 Z M 1.125 0 "/></g></g><g transform="translate(15.769934, 12.911562)"><g><path d="M 6.75 -5.09375 L 6.75 -8.5625 L 7.765625 -8.5625 L 7.765625 0 L 6.75 0 L 6.75 -4.234375 L 2.296875 -4.234375 L 2.296875 0 L 1.296875 0 L 1.296875 -8.5625 L 2.296875 -8.5625 L 2.296875 -5.09375 Z M 6.75 -5.09375 "/></g></g><g transform="translate(24.828527, 12.911562)"><g><path d="M 5.171875 0 L 0.4375 0 L 0.4375 -0.828125 L 3.984375 -5.5625 L 3.953125 -5.6875 L 0.59375 -5.6875 L 0.59375 -6.46875 L 5.109375 -6.46875 L 5.109375 -5.640625 L 1.5625 -0.90625 L 1.609375 -0.78125 L 5.171875 -0.78125 Z M 5.171875 0 "/></g></g></g></g></g></g><g mask="url(#47293d1e16)"><g transform="matrix(1, 0, 0, 1, 210, 293)"><g clip-path="url(#f28ae7a184)"><g fill="#d9d9d9" fill-opacity="1"><g transform="translate(0.61751, 12.911562)"><g><path d="M 0.515625 -0.390625 C 0.515625 -0.867188 0.566406 -1.25 0.671875 -1.53125 C 0.773438 -1.820312 0.953125 -2.09375 1.203125 -2.34375 C 1.453125 -2.59375 1.847656 -2.914062 2.390625 -3.3125 L 3.34375 -4 C 3.6875 -4.257812 3.96875 -4.492188 4.1875 -4.703125 C 4.40625 -4.921875 4.578125 -5.15625 4.703125 -5.40625 C 4.835938 -5.65625 4.90625 -5.9375 4.90625 -6.25 C 4.90625 -6.757812 4.769531 -7.140625 4.5 -7.390625 C 4.226562 -7.648438 3.804688 -7.78125 3.234375 -7.78125 C 2.773438 -7.78125 2.367188 -7.675781 2.015625 -7.46875 C 1.671875 -7.257812 1.390625 -6.960938 1.171875 -6.578125 L 1.046875 -6.546875 L 0.4375 -7.1875 C 0.726562 -7.65625 1.109375 -8.019531 1.578125 -8.28125 C 2.046875 -8.550781 2.597656 -8.6875 3.234375 -8.6875 C 3.835938 -8.6875 4.335938 -8.582031 4.734375 -8.375 C 5.140625 -8.164062 5.4375 -7.878906 5.625 -7.515625 C 5.820312 -7.148438 5.921875 -6.726562 5.921875 -6.25 C 5.921875 -5.863281 5.835938 -5.503906 5.671875 -5.171875 C 5.515625 -4.847656 5.289062 -4.535156 5 -4.234375 C 4.707031 -3.941406 4.34375 -3.632812 3.90625 -3.3125 L 2.953125 -2.625 C 2.597656 -2.363281 2.320312 -2.140625 2.125 -1.953125 C 1.9375 -1.765625 1.796875 -1.582031 1.703125 -1.40625 C 1.617188 -1.238281 1.578125 -1.046875 1.578125 -0.828125 L 5.921875 -0.828125 L 5.921875 0 L 0.515625 0 Z M 0.515625 -0.390625 "/></g></g><g transform="translate(7.203447, 12.911562)"><g><path d="M 1.578125 0.0625 C 1.359375 0.0625 1.179688 0 1.046875 -0.125 C 0.921875 -0.25 0.859375 -0.414062 0.859375 -0.625 C 0.859375 -0.832031 0.921875 -1 1.046875 -1.125 C 1.179688 -1.257812 1.359375 -1.328125 1.578125 -1.328125 C 1.804688 -1.328125 1.984375 -1.265625 2.109375 -1.140625 C 2.234375 -1.015625 2.296875 -0.847656 2.296875 -0.640625 C 2.296875 -0.429688 2.226562 -0.257812 2.09375 -0.125 C 1.96875 0 1.796875 0.0625 1.578125 0.0625 Z M 1.578125 0.0625 "/></g></g></g><g fill="#d9d9d9" fill-opacity="1"><g transform="translate(10.215166, 12.911562)"><g><path d="M 5.359375 0 L 4.40625 0 L 4.40625 -2.046875 L 0.390625 -2.046875 L 0.390625 -2.859375 L 4.171875 -8.5625 L 5.359375 -8.5625 L 5.359375 -2.859375 L 6.84375 -2.859375 L 6.84375 -2.046875 L 5.359375 -2.046875 Z M 1.578125 -2.984375 L 1.625 -2.859375 L 4.40625 -2.859375 L 4.40625 -7.171875 L 4.265625 -7.203125 Z M 1.578125 -2.984375 "/></g></g><g transform="translate(17.474931, 12.911562)"><g/></g><g transform="translate(20.416337, 12.911562)"><g><path d="M 1.125 0 L 1.125 -9.0625 L 2.078125 -9.0625 L 2.078125 -3.765625 L 2.234375 -3.765625 L 4.640625 -6.46875 L 5.640625 -6.46875 L 5.640625 -6.328125 L 3.078125 -3.421875 L 5.890625 -0.140625 L 5.890625 0 L 4.828125 0 L 2.234375 -2.984375 L 2.078125 -2.984375 L 2.078125 0 Z M 1.125 0 "/></g></g><g transform="translate(26.428055, 12.911562)"><g><path d="M 6.75 -5.09375 L 6.75 -8.5625 L 7.765625 -8.5625 L 7.765625 0 L 6.75 0 L 6.75 -4.234375 L 2.296875 -4.234375 L 2.296875 0 L 1.296875 0 L 1.296875 -8.5625 L 2.296875 -8.5625 L 2.296875 -5.09375 Z M 6.75 -5.09375 "/></g></g><g transform="translate(35.486649, 12.911562)"><g><path d="M 5.171875 0 L 0.4375 0 L 0.4375 -0.828125 L 3.984375 -5.5625 L 3.953125 -5.6875 L 0.59375 -5.6875 L 0.59375 -6.46875 L 5.109375 -6.46875 L 5.109375 -5.640625 L 1.5625 -0.90625 L 1.609375 -0.78125 L 5.171875 -0.78125 Z M 5.171875 0 "/></g></g></g></g></g></g><g mask="url(#37b402ecd4)"><g transform="matrix(1, 0, 0, 1, 264, 293)"><g clip-path="url(#03ebabda25)"><g fill="#d9d9d9" fill-opacity="1"><g transform="translate(0.617419, 12.911562)"><g><path d="M 4.09375 0.125 C 3.488281 0.125 2.941406 -0.0195312 2.453125 -0.3125 C 1.972656 -0.601562 1.585938 -1.078125 1.296875 -1.734375 C 1.015625 -2.390625 0.875 -3.238281 0.875 -4.28125 C 0.875 -5.289062 1.015625 -6.125 1.296875 -6.78125 C 1.585938 -7.445312 1.984375 -7.929688 2.484375 -8.234375 C 2.984375 -8.535156 3.550781 -8.6875 4.1875 -8.6875 C 5.28125 -8.6875 6.085938 -8.351562 6.609375 -7.6875 L 6.125 -7.03125 L 5.96875 -7.03125 C 5.550781 -7.53125 4.957031 -7.78125 4.1875 -7.78125 C 3.445312 -7.78125 2.878906 -7.5 2.484375 -6.9375 C 2.097656 -6.382812 1.90625 -5.492188 1.90625 -4.265625 L 2.015625 -4.21875 C 2.253906 -4.707031 2.5625 -5.070312 2.9375 -5.3125 C 3.3125 -5.550781 3.769531 -5.671875 4.3125 -5.671875 C 4.863281 -5.671875 5.335938 -5.554688 5.734375 -5.328125 C 6.128906 -5.097656 6.429688 -4.765625 6.640625 -4.328125 C 6.847656 -3.898438 6.953125 -3.390625 6.953125 -2.796875 C 6.953125 -2.203125 6.832031 -1.6875 6.59375 -1.25 C 6.363281 -0.8125 6.03125 -0.472656 5.59375 -0.234375 C 5.164062 0.00390625 4.664062 0.125 4.09375 0.125 Z M 4.09375 -0.78125 C 4.65625 -0.78125 5.097656 -0.953125 5.421875 -1.296875 C 5.742188 -1.640625 5.90625 -2.140625 5.90625 -2.796875 C 5.90625 -3.441406 5.742188 -3.9375 5.421875 -4.28125 C 5.097656 -4.625 4.65625 -4.796875 4.09375 -4.796875 C 3.707031 -4.796875 3.367188 -4.71875 3.078125 -4.5625 C 2.796875 -4.40625 2.578125 -4.175781 2.421875 -3.875 C 2.265625 -3.570312 2.1875 -3.210938 2.1875 -2.796875 C 2.1875 -2.367188 2.265625 -2.003906 2.421875 -1.703125 C 2.578125 -1.410156 2.796875 -1.179688 3.078125 -1.015625 C 3.367188 -0.859375 3.707031 -0.78125 4.09375 -0.78125 Z M 4.09375 -0.78125 "/></g></g><g transform="translate(8.334215, 12.911562)"><g/></g><g transform="translate(11.275621, 12.911562)"><g><path d="M 1.125 0 L 1.125 -9.0625 L 2.078125 -9.0625 L 2.078125 -3.765625 L 2.234375 -3.765625 L 4.640625 -6.46875 L 5.640625 -6.46875 L 5.640625 -6.328125 L 3.078125 -3.421875 L 5.890625 -0.140625 L 5.890625 0 L 4.828125 0 L 2.234375 -2.984375 L 2.078125 -2.984375 L 2.078125 0 Z M 1.125 0 "/></g></g><g transform="translate(17.28734, 12.911562)"><g><path d="M 6.75 -5.09375 L 6.75 -8.5625 L 7.765625 -8.5625 L 7.765625 0 L 6.75 0 L 6.75 -4.234375 L 2.296875 -4.234375 L 2.296875 0 L 1.296875 0 L 1.296875 -8.5625 L 2.296875 -8.5625 L 2.296875 -5.09375 Z M 6.75 -5.09375 "/></g></g><g transform="translate(26.345933, 12.911562)"><g><path d="M 5.171875 0 L 0.4375 0 L 0.4375 -0.828125 L 3.984375 -5.5625 L 3.953125 -5.6875 L 0.59375 -5.6875 L 0.59375 -6.46875 L 5.109375 -6.46875 L 5.109375 -5.640625 L 1.5625 -0.90625 L 1.609375 -0.78125 L 5.171875 -0.78125 Z M 5.171875 0 "/></g></g></g></g></g></g><g mask="url(#bb028e9987)"><g transform="matrix(1, 0, 0, 1, 311, 293)"><g clip-path="url(#c4fdabaee6)"><g clip-path="url(#676e6c28af)"><g fill="#d9d9d9" fill-opacity="1"><g transform="translate(0.161097, 12.911562)"><g><path d="M 0.609375 0 L 0.609375 -0.828125 L 2.953125 -0.828125 L 2.953125 -7.390625 L 2.8125 -7.421875 C 2.4375 -7.234375 2.101562 -7.085938 1.8125 -6.984375 C 1.53125 -6.890625 1.164062 -6.796875 0.71875 -6.703125 L 0.71875 -7.625 C 1.164062 -7.71875 1.601562 -7.84375 2.03125 -8 C 2.457031 -8.164062 2.847656 -8.351562 3.203125 -8.5625 L 3.9375 -8.5625 L 3.9375 -0.828125 L 6.03125 -0.828125 L 6.03125 0 Z M 0.609375 0 "/></g></g><g transform="translate(6.547816, 12.911562)"><g><path d="M 3.53125 0.125 C 2.726562 0.125 2.085938 -0.0507812 1.609375 -0.40625 C 1.128906 -0.757812 0.816406 -1.265625 0.671875 -1.921875 L 1.421875 -2.265625 L 1.546875 -2.234375 C 1.648438 -1.898438 1.78125 -1.628906 1.9375 -1.421875 C 2.09375 -1.210938 2.300781 -1.050781 2.5625 -0.9375 C 2.820312 -0.832031 3.144531 -0.78125 3.53125 -0.78125 C 4.101562 -0.78125 4.550781 -0.953125 4.875 -1.296875 C 5.195312 -1.648438 5.359375 -2.15625 5.359375 -2.8125 C 5.359375 -3.488281 5.195312 -4 4.875 -4.34375 C 4.5625 -4.695312 4.128906 -4.875 3.578125 -4.875 C 3.148438 -4.875 2.800781 -4.785156 2.53125 -4.609375 C 2.269531 -4.441406 2.035156 -4.179688 1.828125 -3.828125 L 1.03125 -3.890625 L 1.1875 -8.5625 L 5.984375 -8.5625 L 5.984375 -7.71875 L 2.0625 -7.71875 L 1.96875 -4.875 L 2.09375 -4.84375 C 2.289062 -5.144531 2.535156 -5.367188 2.828125 -5.515625 C 3.117188 -5.660156 3.46875 -5.734375 3.875 -5.734375 C 4.382812 -5.734375 4.832031 -5.617188 5.21875 -5.390625 C 5.601562 -5.160156 5.898438 -4.828125 6.109375 -4.390625 C 6.316406 -3.953125 6.421875 -3.425781 6.421875 -2.8125 C 6.421875 -2.207031 6.300781 -1.679688 6.0625 -1.234375 C 5.820312 -0.796875 5.484375 -0.457031 5.046875 -0.21875 C 4.609375 0.0078125 4.101562 0.125 3.53125 0.125 Z M 3.53125 0.125 "/></g></g><g transform="translate(13.637659, 12.911562)"><g/></g><g transform="translate(16.579065, 12.911562)"><g><path d="M 1.125 0 L 1.125 -9.0625 L 2.078125 -9.0625 L 2.078125 -3.765625 L 2.234375 -3.765625 L 4.640625 -6.46875 L 5.640625 -6.46875 L 5.640625 -6.328125 L 3.078125 -3.421875 L 5.890625 -0.140625 L 5.890625 0 L 4.828125 0 L 2.234375 -2.984375 L 2.078125 -2.984375 L 2.078125 0 Z M 1.125 0 "/></g></g><g transform="translate(22.590783, 12.911562)"><g><path d="M 6.75 -5.09375 L 6.75 -8.5625 L 7.765625 -8.5625 L 7.765625 0 L 6.75 0 L 6.75 -4.234375 L 2.296875 -4.234375 L 2.296875 0 L 1.296875 0 L 1.296875 -8.5625 L 2.296875 -8.5625 L 2.296875 -5.09375 Z M 6.75 -5.09375 "/></g></g><g transform="translate(31.649376, 12.911562)"><g><path d="M 5.171875 0 L 0.4375 0 L 0.4375 -0.828125 L 3.984375 -5.5625 L 3.953125 -5.6875 L 0.59375 -5.6875 L 0.59375 -6.46875 L 5.109375 -6.46875 L 5.109375 -5.640625 L 1.5625 -0.90625 L 1.609375 -0.78125 L 5.171875 -0.78125 Z M 5.171875 0 "/></g></g></g></g></g></g></g></svg>